<svg xmlns="http://www.w3.org/2000/svg" width="210.289" height="213.049" viewBox="0 0 210.289 213.049">
  <g id="croix-1" transform="translate(-1515 -2411)">
    <g id="Groupe_16" data-name="Groupe 16" transform="translate(1515 2411)">
      <path id="Tracé_2554" data-name="Tracé 2554" d="M1246.215,398.259h-9.953V387.151c0-19.712-14.066-37.354-33.609-39.942a38.929,38.929,0,0,0-44.051,38.484v46.651a43.576,43.576,0,0,0,43.576,43.576h45.494a38.929,38.929,0,0,0,38.484-44.051C1283.569,412.327,1265.927,398.259,1246.215,398.259Z" transform="translate(-1076.214 -346.863)" fill="rgba(86,175,170,0.42)" style="mix-blend-mode: multiply;isolation: isolate"/>
      <path id="Tracé_2555" data-name="Tracé 2555" d="M1143.26,398.259h9.953V387.151c0-19.712,14.066-37.354,33.609-39.942a38.929,38.929,0,0,1,44.052,38.484v46.651a43.576,43.576,0,0,1-43.576,43.576H1141.8a38.929,38.929,0,0,1-38.484-44.051C1105.906,412.327,1123.548,398.259,1143.26,398.259Z" transform="translate(-1102.973 -346.863)" fill="rgba(86,175,170,0.42)" style="mix-blend-mode: multiply;isolation: isolate"/>
      <path id="Tracé_2556" data-name="Tracé 2556" d="M1246.215,481.236h-9.953v11.108c0,19.712-14.066,37.354-33.609,39.942A38.928,38.928,0,0,1,1158.6,493.8V447.152a43.576,43.576,0,0,1,43.576-43.576h45.494a38.929,38.929,0,0,1,38.484,44.052C1283.569,467.17,1265.927,481.236,1246.215,481.236Z" transform="translate(-1076.214 -319.583)" fill="rgba(86,175,170,0.42)" style="mix-blend-mode: multiply;isolation: isolate"/>
      <path id="Tracé_2557" data-name="Tracé 2557" d="M1143.26,481.236h9.953v11.108c0,19.712,14.066,37.354,33.609,39.942a38.928,38.928,0,0,0,44.052-38.484V447.152a43.576,43.576,0,0,0-43.576-43.576H1141.8a38.929,38.929,0,0,0-38.484,44.052C1105.906,467.17,1123.548,481.236,1143.26,481.236Z" transform="translate(-1102.973 -319.583)" fill="rgba(86,175,170,0.42)" style="mix-blend-mode: multiply;isolation: isolate"/>
    </g>
  </g>
</svg>
