<svg xmlns="http://www.w3.org/2000/svg" width="80.711" height="81.77" viewBox="0 0 80.711 81.77">
  <g id="mg-symbole-orange" transform="translate(-1515 -2411)">
    <g id="Groupe_16" data-name="Groupe 16" transform="translate(1515 2411)">
      <path id="Tracé_2554" data-name="Tracé 2554" d="M1192.229,366.59h-3.82v-4.263c0-7.566-5.4-14.337-12.9-15.33a14.941,14.941,0,0,0-16.907,14.771v17.905a16.725,16.725,0,0,0,16.725,16.725h17.461a14.942,14.942,0,0,0,14.771-16.907C1206.566,371.989,1199.795,366.59,1192.229,366.59Z" transform="translate(-1126.981 -346.863)" fill="#fde6cb" style="mix-blend-mode: multiply;isolation: isolate"/>
      <path id="Tracé_2555" data-name="Tracé 2555" d="M1118.435,366.59h3.82v-4.263c0-7.566,5.4-14.337,12.9-15.33a14.941,14.941,0,0,1,16.907,14.771v17.905a16.725,16.725,0,0,1-16.725,16.725h-17.461a14.942,14.942,0,0,1-14.771-16.907C1104.1,371.989,1110.87,366.59,1118.435,366.59Z" transform="translate(-1102.973 -346.863)" fill="#fde6cb" style="mix-blend-mode: multiply;isolation: isolate"/>
      <path id="Tracé_2556" data-name="Tracé 2556" d="M1192.229,433.383h-3.82v4.263c0,7.566-5.4,14.337-12.9,15.33a14.941,14.941,0,0,1-16.907-14.771V420.3a16.725,16.725,0,0,1,16.725-16.725h17.461a14.942,14.942,0,0,1,14.771,16.907C1206.566,427.984,1199.795,433.383,1192.229,433.383Z" transform="translate(-1126.981 -371.339)" fill="#fde6cb" style="mix-blend-mode: multiply;isolation: isolate"/>
      <path id="Tracé_2557" data-name="Tracé 2557" d="M1118.435,433.383h3.82v4.263c0,7.566,5.4,14.337,12.9,15.33a14.941,14.941,0,0,0,16.907-14.771V420.3a16.725,16.725,0,0,0-16.725-16.725h-17.461a14.942,14.942,0,0,0-14.771,16.907C1104.1,427.984,1110.87,433.383,1118.435,433.383Z" transform="translate(-1102.973 -371.339)" fill="#fde6cb" style="mix-blend-mode: multiply;isolation: isolate"/>
    </g>
  </g>
</svg>
