<svg xmlns="http://www.w3.org/2000/svg" width="34.067" height="34.365" viewBox="0 0 34.067 34.365">
  <g id="symbole" transform="translate(-422.116 -425.339)">
    <path id="Tracé_13325" data-name="Tracé 13325" d="M506.768,430.9h-1.076v-1.2a4.308,4.308,0,0,0-3.635-4.32,4.211,4.211,0,0,0-4.765,4.163v5.046A4.713,4.713,0,0,0,502,439.3h4.921a4.211,4.211,0,0,0,4.163-4.764A4.309,4.309,0,0,0,506.768,430.9Z" transform="translate(-54.943 0)" fill="#56afaa"/>
    <path id="Tracé_13326" data-name="Tracé 13326" d="M426.473,430.9h1.076v-1.2a4.308,4.308,0,0,1,3.635-4.32,4.21,4.21,0,0,1,4.764,4.163v5.046a4.713,4.713,0,0,1-4.713,4.713h-4.921a4.21,4.21,0,0,1-4.162-4.764A4.308,4.308,0,0,1,426.473,430.9Z" transform="translate(0 0)" fill="#f7931e"/>
    <path id="Tracé_13327" data-name="Tracé 13327" d="M506.768,509.56h-1.076v1.2a4.308,4.308,0,0,1-3.635,4.32,4.21,4.21,0,0,1-4.765-4.162v-5.046A4.713,4.713,0,0,1,502,501.16h4.921a4.211,4.211,0,0,1,4.163,4.765A4.309,4.309,0,0,1,506.768,509.56Z" transform="translate(-54.943 -55.414)" fill="#56afaa"/>
    <path id="Tracé_13328" data-name="Tracé 13328" d="M426.473,509.56h1.076v1.2a4.308,4.308,0,0,0,3.635,4.32,4.21,4.21,0,0,0,4.764-4.162v-5.046a4.713,4.713,0,0,0-4.713-4.713h-4.921a4.21,4.21,0,0,0-4.162,4.765A4.308,4.308,0,0,0,426.473,509.56Z" transform="translate(0 -55.414)" fill="#56afaa"/>
  </g>
</svg>
