<svg xmlns="http://www.w3.org/2000/svg" width="24" height="24" viewBox="0 0 24 24">
  <g id="calendrier-mg" transform="translate(-781 -3412)">
    <rect id="Rectangle_121" data-name="Rectangle 121" width="24" height="24" transform="translate(781 3412)" fill="#fff" opacity="0"/>
    <g id="Groupe_773" data-name="Groupe 773" transform="translate(781 3412)">
      <rect id="Rectangle_94" data-name="Rectangle 94" width="2.728" height="2.408" transform="translate(8.578 9.334)" fill="#155a76"/>
      <rect id="Rectangle_95" data-name="Rectangle 95" width="2.731" height="2.408" transform="translate(12.735 9.334)" fill="#155a76"/>
      <rect id="Rectangle_96" data-name="Rectangle 96" width="2.73" height="2.408" transform="translate(16.985 9.334)" fill="#155a76"/>
      <rect id="Rectangle_97" data-name="Rectangle 97" width="2.73" height="2.406" transform="translate(8.571 13.082)" fill="#155a76"/>
      <rect id="Rectangle_98" data-name="Rectangle 98" width="2.731" height="2.406" transform="translate(12.727 13.082)" fill="#155a76"/>
      <rect id="Rectangle_99" data-name="Rectangle 99" width="2.729" height="2.406" transform="translate(16.979 13.082)" fill="#155a76"/>
      <rect id="Rectangle_100" data-name="Rectangle 100" width="2.728" height="2.406" transform="translate(8.578 16.984)" fill="#155a76"/>
      <rect id="Rectangle_101" data-name="Rectangle 101" width="2.725" height="2.406" transform="translate(4.287 13.082)" fill="#155a76"/>
      <rect id="Rectangle_102" data-name="Rectangle 102" width="2.725" height="2.406" transform="translate(4.293 16.984)" fill="#155a76"/>
      <rect id="Rectangle_103" data-name="Rectangle 103" width="2.731" height="2.406" transform="translate(12.735 16.984)" fill="#155a76"/>
      <rect id="Rectangle_104" data-name="Rectangle 104" width="2.73" height="2.406" transform="translate(16.985 16.984)" fill="#155a76"/>
      <path id="Tracé_13407" data-name="Tracé 13407" d="M1.715,8.349H22.286V22.054H1.715Zm18.872-6.06v2.15H17.351V2.293L7.092,2.3V4.518H3.857V2.306L0,2.31V23.763H22.287L24,23.757,23.974,2.286Z" transform="translate(0 -0.597)" fill="#155a76"/>
      <rect id="Rectangle_105" data-name="Rectangle 105" width="2.046" height="3.379" transform="translate(4.493 0)" fill="#155a76"/>
      <rect id="Rectangle_106" data-name="Rectangle 106" width="2.045" height="3.379" transform="translate(17.943 0)" fill="#155a76"/>
    </g>
  </g>
</svg>
