<svg xmlns="http://www.w3.org/2000/svg" width="40.241" height="58.698" viewBox="0 0 40.241 58.698">
  <g id="map-en-construction" transform="translate(-959.269 -1796.378)">
    <g id="Groupe_95" data-name="Groupe 95" transform="translate(440 -22)">
      <path id="Tracé_13346" data-name="Tracé 13346" d="M376.12,336c-7.644,0-19.12,3.476-19.12,17.382,0,6.953,15.3,31.288,19.12,38.24,3.824-6.953,19.12-31.288,19.12-38.24C395.241,339.476,383.772,336,376.12,336Z" transform="translate(163.269 1483.378)" fill="#fff" stroke="#ff7757" stroke-width="2"/>
    </g>
    <g id="spanner-hammer-mini" transform="translate(929 1246.235)">
      <path id="Tracé_13353" data-name="Tracé 13353" d="M47.07,565.008l2.829-2.829-4.243-1.414-1.414,1.414-.707-.707-2.121,2.121.707.707L40,566.422l2.828,2.828,2.121-2.121,2.6,2.6,2.121-2.121Z" fill="#ff7757"/>
      <path id="Tracé_13354" data-name="Tracé 13354" d="M56.616,578.8a1.5,1.5,0,1,0,2.122-2.121L53.2,571.141l-2.122,2.121Z" fill="#ff7757"/>
      <path id="Tracé_13355" data-name="Tracé 13355" d="M58.984,566.775a3.491,3.491,0,0,0,.813-3.641l-1.52,1.52a1.5,1.5,0,0,1-2.122-2.122l1.521-1.52a3.481,3.481,0,0,0-4.455,4.456l-2.846,2.845-2.121,2.121-6.24,6.241a1.5,1.5,0,0,0,2.121,2.121l6.24-6.241,2.122-2.121,2.845-2.845A3.492,3.492,0,0,0,58.984,566.775Z" fill="#ff7757"/>
    </g>
  </g>
</svg>
