<svg xmlns="http://www.w3.org/2000/svg" width="40.241" height="58.698" viewBox="0 0 40.241 58.698">
  <g id="map-centre" transform="translate(-519.269 -1818.378)">
    <path id="Tracé_13346" data-name="Tracé 13346" d="M376.12,336c-7.644,0-19.12,3.476-19.12,17.382,0,6.953,15.3,31.288,19.12,38.24,3.824-6.953,19.12-31.288,19.12-38.24C395.241,339.476,383.772,336,376.12,336Z" transform="translate(163.269 1483.378)" fill="#fff" stroke="#56afaa" stroke-width="2"/>
    <g id="Groupe_90" data-name="Groupe 90" transform="translate(106.776 1401.391)">
      <path id="Tracé_13325" data-name="Tracé 13325" d="M502.934,428.648h-.641v-.715a2.565,2.565,0,0,0-2.164-2.572,2.507,2.507,0,0,0-2.837,2.478v3a2.806,2.806,0,0,0,2.806,2.806h2.93a2.507,2.507,0,0,0,2.478-2.837A2.565,2.565,0,0,0,502.934,428.648Z" transform="translate(-63.13 0)" fill="#56afaa"/>
      <path id="Tracé_13326" data-name="Tracé 13326" d="M424.71,428.648h.641v-.715a2.565,2.565,0,0,1,2.164-2.572,2.507,2.507,0,0,1,2.837,2.478v3a2.806,2.806,0,0,1-2.806,2.806h-2.93a2.507,2.507,0,0,1-2.478-2.837A2.565,2.565,0,0,1,424.71,428.648Z" transform="translate(0 0)" fill="#f7931e"/>
      <path id="Tracé_13327" data-name="Tracé 13327" d="M502.934,506.161h-.641v.715a2.565,2.565,0,0,1-2.164,2.572,2.507,2.507,0,0,1-2.837-2.478v-3a2.806,2.806,0,0,1,2.806-2.806h2.93A2.507,2.507,0,0,1,505.506,504,2.565,2.565,0,0,1,502.934,506.161Z" transform="translate(-63.13 -63.672)" fill="#56afaa"/>
      <path id="Tracé_13328" data-name="Tracé 13328" d="M424.71,506.161h.641v.715a2.565,2.565,0,0,0,2.164,2.572,2.507,2.507,0,0,0,2.837-2.478v-3a2.806,2.806,0,0,0-2.806-2.806h-2.93A2.507,2.507,0,0,0,422.138,504,2.565,2.565,0,0,0,424.71,506.161Z" transform="translate(0 -63.672)" fill="#56afaa"/>
    </g>
  </g>
</svg>
