<svg xmlns="http://www.w3.org/2000/svg" xmlns:xlink="http://www.w3.org/1999/xlink" width="40.241" height="58.698" viewBox="0 0 40.241 58.698">
  <defs>
    <clipPath id="clip-path">
      <rect id="Rectangle_107" data-name="Rectangle 107" width="19.624" height="32.723" fill="#56afaa"/>
    </clipPath>
  </defs>
  <g id="map-etude" transform="translate(-899.269 -1718.378)">
    <g id="Groupe_781" data-name="Groupe 781" transform="translate(380 -100)">
      <path id="Tracé_13346" data-name="Tracé 13346" d="M376.12,336c-7.644,0-19.12,3.476-19.12,17.382,0,6.953,15.3,31.288,19.12,38.24,3.824-6.953,19.12-31.288,19.12-38.24C395.241,339.476,383.772,336,376.12,336Z" transform="translate(163.269 1483.378)" fill="#fff" stroke="#56afaa" stroke-width="2"/>
    </g>
    <g id="Groupe_782" data-name="Groupe 782" transform="translate(909.615 1722)">
      <g id="Groupe_777" data-name="Groupe 777" transform="translate(0 0)" clip-path="url(#clip-path)">
        <path id="Tracé_13408" data-name="Tracé 13408" d="M18.454,27.521l.2-2.4-3.139-8.535h1.741v1.378h.851V14.356h-.851v1.377H15.2L13.17,10.206A3.933,3.933,0,0,0,10.084,4.7V0H9.017V4.7a3.94,3.94,0,0,0-2.773,6.082L4.422,15.733H2.284V14.356H1.433v3.606h.851V16.584H4.109L.969,25.12l.2,2.4L0,32.722l2.626-4.6,1.89-1.77L9.812,12.8l5.3,13.555L17,28.12l2.626,4.6ZM9.613,11.356a2.739,2.739,0,1,1,2.738-2.74,2.74,2.74,0,0,1-2.738,2.74" transform="translate(0 0)" fill="#56afaa" fill-rule="evenodd"/>
        <path id="Tracé_13409" data-name="Tracé 13409" d="M9.452,7.161A1.35,1.35,0,1,0,10.8,8.512,1.351,1.351,0,0,0,9.452,7.161" transform="translate(0.162 0.144)" fill="#56afaa" fill-rule="evenodd"/>
      </g>
    </g>
  </g>
</svg>
