<svg xmlns="http://www.w3.org/2000/svg" xmlns:xlink="http://www.w3.org/1999/xlink" width="120.103" height="120" viewBox="0 0 120.103 120">
  <defs>
    <clipPath id="clip-path">
      <circle id="SVGID" cx="60" cy="60" r="60" fill="none"/>
    </clipPath>
  </defs>
  <g id="mag-map" transform="translate(-1003.897 -2312)">
    <g id="Ellipse_2" data-name="Ellipse 2" transform="translate(1004 2312)" fill="#fff" stroke="#56afaa" stroke-width="2">
      <circle cx="60" cy="60" r="60" stroke="none"/>
      <circle cx="60" cy="60" r="59" fill="none"/>
    </g>
    <g id="Groupe_47" data-name="Groupe 47" transform="translate(827.958 2174.263)">
      <g id="Groupe_46" data-name="Groupe 46" transform="translate(175.939 137.737)" clip-path="url(#clip-path)">
        <path id="Tracé_6666" data-name="Tracé 6666" d="M528.543,453.954,546.162,494.7l39.549,84.256,2.021-.62-39.538-84.238-17.6-40.7-1.284-3.221,2.7-2.667a1.59,1.59,0,0,0,.456-.806,14.878,14.878,0,0,1,1.215-3.356,12.414,12.414,0,0,0,1.368-4.425,26.857,26.857,0,0,0-.077-2.816c-.354-6.074-.281-12.57,5.06-12.829a14.6,14.6,0,0,1,3.443.562c2.568.624,5.483,1.331,9.207-.762a12.243,12.243,0,0,0,5.472-6.843,6.5,6.5,0,0,1,1.138-2.141l-.015-.011a17.281,17.281,0,0,0,3.527-.978,10.572,10.572,0,0,1,3.863-.843l-.044-1.755a13.091,13.091,0,0,0-4.709,1,13.294,13.294,0,0,1-4.6,1c-3.848.164-5.056,1.762-6.114,3.174a9.094,9.094,0,0,1-1.127,1.313,2.243,2.243,0,0,1-1.229.733,4.166,4.166,0,0,1-1.331-.7l-.2-.131c-.726-.478-2.185-4.067-3.152-7.255l.989-4.4c.212-.748,3.575-12.592,3.651-15.434a25.818,25.818,0,0,0-1.029-6.037,38.963,38.963,0,0,1-1.058-5.373,64.656,64.656,0,0,1-.044-7.387c10.6.142,22.091.43,22.259.438l.066-1.755c-.248,0-24.542-.616-35.139-.5l-1.357-11.906-4.72-24.159-.015-.062-3.6-9.422c17.484-1.682,49.672-4.582,50.066-4.614l-.339-2.491c-.153.015-4.9.441-11.691,1.062l-3.626-14.255,12.264-1.642-.354-1.729L558.1,301.619l-1.642-5.541-4.417-17.911-4.531-20.946-.27-1.185,16.528-2.422,9.236-2.156-.686-1.922-9.054,2.116-3.122.456-4.749-9.977-3.52-10.29a8.759,8.759,0,0,0-6.041-5.362,11.512,11.512,0,0,0-3.71-.43l-.055,0c-.091-1.948-.164-3.841-.193-5.286a33.146,33.146,0,0,0-2.5-10.644l-.467-5.027,37.445-.879a1.265,1.265,0,0,0,1.353-1.156,1.306,1.306,0,0,0-1.433-1.094l-30.1.7-.274-13.147,29.2-.244c.916-.011,1.62-.737,1.295-1.518a1.39,1.39,0,0,0-1.31-.737h-.015l-29.215.248-.383-18.626a1.073,1.073,0,0,0-.43-.846,1.649,1.649,0,0,0-1.722-.124l-35.934,19.176,1.441-39.706,5.979.551,57.7,10.754a1.85,1.85,0,0,0,.314.026,1.368,1.368,0,0,0,1.357-.872,1.153,1.153,0,0,0-1.047-1.353l-57.777-10.768-6.329-.587.591-4.921,62.917,10.717a1.947,1.947,0,0,0,.288.022,1.345,1.345,0,0,0,1.357-.894,1.151,1.151,0,0,0-1.072-1.335L509.889,137.72l2.415-20.074a1.215,1.215,0,0,0-1.251-1.229,1.342,1.342,0,0,0-1.517,1.01l-2.408,20.023-17.086-1.156-4.056-6.767a1.571,1.571,0,0,0-1.762-.613,1.069,1.069,0,0,0-.766,1.55l3.363,5.614-22.146-1.5v-5.654c0-1.875-1.693-3.56-4.184-3.823-.186-.018-.376-.022-.562-.022H447.274l.2-7.062a1.264,1.264,0,0,0-1.357-1.153,1.3,1.3,0,0,0-1.426,1.1l-.212,7.6a.982.982,0,0,0-.255.642.962.962,0,0,0,.219.595l-.179,6.395-10.068-.678.609-15.7a1.264,1.264,0,0,0-1.346-1.164,1.292,1.292,0,0,0-1.434,1.094l-.605,15.6-42.077-2.338-.317-12.311a1.151,1.151,0,0,0-1.262-.981,1.127,1.127,0,0,0-1.211,1.021l.321,12.468a1.062,1.062,0,0,0-.47.77,1.039,1.039,0,0,0,.514.952l.376,14.679-.1-.157-2.506-20.314a2.722,2.722,0,0,0-2.871-2.108h-1.459c-.022-.3-.033-.492-.037-.551,0-.161,0-.646-2.046-6.008a1.317,1.317,0,0,0-1.452-.73,1.008,1.008,0,0,0-.926,1.277c.9,2.36,1.871,5.052,1.955,5.515.036.733.62,7.624,1.087,13.077l-14.015-.182a47.633,47.633,0,0,1-5-4.027c-4.293-4.72-5.7-18.808-5.709-18.95l-2.466.153a65.467,65.467,0,0,0,3.214,14.7H328.951a3.147,3.147,0,0,0-1.463-1.331l2-14.15-2.765-.255-2,14.15a3.357,3.357,0,0,0-2.2,1.587H289.635V115.535h-2.78v13.282l-13.573,7.055-.033.018c-5.289,2.929-9.838,4.045-13.522,3.319a7.915,7.915,0,0,1-5.008-2.911l-.066-.1-5.607-5.621,24.677-16.058a.922.922,0,0,0,.285-1.4,1.432,1.432,0,0,0-1.78-.193l-32.443,21.113-26.873,19.7-7.54-.9a5.6,5.6,0,0,1-3.761-1.977l-9.426-11.987c-.431-.894-3.217-5.811-12.545-5.811-9.243,0-13.5-1.952-17.064-3.954-3.874-2.174-19.9-15.514-20.056-15.649l-1.773,1.4c.668.554,16.349,13.617,20.42,15.9,3.889,2.181,8.514,4.308,18.472,4.308.584,0,1.131.025,1.656.066l-1.722,4.005c-.42,1-1.569,2-4.359,3.433-4.148,2.13-16.7,13.544-17.907,16.284-.478,1.087-2.313,2.918-4.082,4.687a36.021,36.021,0,0,0-4.293,4.775c-1.226,1.879-4.18,3.535-5.647,4.275-.244-.23-.419-.4-.5-.481l-9.225-11.626-5.913-6.73c-.161-.175-3.936-4.308-7.274-5.57L119.328,150c2.294.868,5.344,3.863,6.314,4.932l5.855,6.657,9.254,11.666.1.109.339.321L134,177.624l-14.124-16.156-2.521,1.448,18.024,20.617,17.447,18.155.106.1c.055.047,2.043,1.725,4.713,3.98l-.8,1.127-7.992-7.022L122.724,171.2l-6.139-6.468a1.84,1.84,0,0,0-2.083-.343,1.12,1.12,0,0,0-.409,1.824l6.161,6.489,7.938,8.715c-4.669,3.122-11.315,7.511-12.246,7.992a.961.961,0,0,0-.7,1.109,1.2,1.2,0,0,0,1.211.806,1.781,1.781,0,0,0,.241-.018c.233-.036.485-.08,3.615-2.094l13.384,15,.518,10.243-3.013,1.076-12.165.989.248,1.992,12.552-1.014,4.775-1.714,6.975-1.167,8.178-1.638.274.726-16.047,22.686-17.878,24.356-3.929,4.02a.9.9,0,0,0,.142,1.43,1.41,1.41,0,0,0,.788.23,1.352,1.352,0,0,0,.97-.379l4.071-4.166,17.973-24.48,18.866-26.676,1.1.967-13.818,19.282L128.98,254.5l-13.53,16.7a.909.909,0,0,0,.255,1.39,1.455,1.455,0,0,0,.748.2,1.317,1.317,0,0,0,1.029-.449l13.632-16.82,10.52-16.189,19.344-.9-2.378,5.884a5.068,5.068,0,0,0-.069,3.688l2.933,8.091a1.078,1.078,0,0,0,1.04.631,1.431,1.431,0,0,0,.3-.036.868.868,0,0,0,.733-1.091L160.6,247.5a3.665,3.665,0,0,1,.051-2.648l2.648-6.537,15.806-.737,11.5,17.52,7.69,10.586c-6.942,5.045-9.776,13.081-9.9,13.435l-.026.073-1.306,6.942c-8.124-2.583-22.4-3.881-37.441-5.249l-5.034-.46c-17.309-1.6-28.6-3.71-28.719-3.732l-.7,2.44c.109.022,11.564,2.163,29.062,3.779q2.522.235,5.041.46c15.324,1.39,31.163,2.831,38.331,5.68,4.213,1.674,9.674,4.191,13.927,6.212-8.682,2.028-15.62,3.681-18.863,4.479a140.279,140.279,0,0,0-17.44,5.559A44.477,44.477,0,0,0,153.8,311.3c-1.835,1.419-4.115,3.108-6.457,4.826l-6.883-4.957,8.492-7.128a28.993,28.993,0,0,0,5.5-6.081c2.291-3.407,2.827-9.517-2.108-12.114-2.564-1.35-8.893-1.663-15.018-1.963-2.035-.1-3.961-.2-5.625-.325a154.675,154.675,0,0,0-16.265,0,1.1,1.1,0,0,0-1.149,1.062,1.165,1.165,0,0,0,1.31.934,155.908,155.908,0,0,1,15.871,0c1.7.131,3.648.226,5.705.328,5.26.259,11.808.58,13.821,1.641,3.637,1.919,3.071,6.821,1.288,9.481a27.082,27.082,0,0,1-5.111,5.647l-8.565,7.186-4.476-3.225a1.481,1.481,0,0,0-1.579-.077.89.89,0,0,0-.088,1.554l4.407,3.174-15.561,12a.873.873,0,0,0-.044,1.415,1.383,1.383,0,0,0,.9.31,1.416,1.416,0,0,0,.85-.274L138.73,312.6l6.38,4.6c0,.23,0,.339,0,.565-3.319,2.429-6.453,4.72-8.138,6.088-4.625,3.746-21.9,11.968-22.076,12.052a.9.9,0,0,0-.441,1.368,1.315,1.315,0,0,0,1.065.5,1.443,1.443,0,0,0,.627-.139c.722-.343,17.728-8.434,22.572-12.362,1.642-1.331,4.757-3.608,8.051-6.019.193-.142.39-.285.587-.43l.474.343c-7.886,6.314-31.123,21.507-31.367,21.668l2.13,2.145c.627-.409,9.714-6.351,18.4-12.315l9.2,8.791a2.08,2.08,0,0,1,.7,1.747,2.213,2.213,0,0,1-1.182,1.62l-4.432,2.5a5.732,5.732,0,0,0-2.55,2.776L133.3,361.494l-11.064-2.947H114.29V360.8h7.5l11.356,3.028,37.809,20.052,15.7,9.842L177.9,403.7l-.35,7.9-4.819-.339a85.189,85.189,0,0,1-10.768-1.766c-3.465-.937-5.96-3.487-7.613-5.173-.226-.233-.441-.449-.635-.638a8.889,8.889,0,0,0-4.859-2.1l-9.831-1.211a3.115,3.115,0,0,0-3.141,1.426,2.013,2.013,0,0,0-.219.85l-.171,3.283a1.858,1.858,0,0,1-1.649,1.6l-4.676.843a2.055,2.055,0,0,0-1.9,2.2.783.783,0,0,1-.773.828,7.664,7.664,0,0,1-1.32.066c-.35-.025-.606-.478-1-1.211a11.836,11.836,0,0,0-.606-1.051c-.963-1.466-5.421-1.984-6.3-2.076l-.19,1.24c2.163.219,4.738.824,5.132,1.423.208.321.383.646.547.963.489.916,1,1.864,2.276,1.959a9.159,9.159,0,0,0,1.682-.073A2.12,2.12,0,0,0,128.8,410.4a.734.734,0,0,1,.668-.806c1.123-.2,3.086-.555,4.713-.85a3.209,3.209,0,0,0,2.856-2.769l.168-3.257a1.113,1.113,0,0,1,.518-.883,1.607,1.607,0,0,1,1.072-.233l9.856,1.215a7.292,7.292,0,0,1,3.867,1.652c.193.19.4.4.62.627,1.766,1.8,4.436,4.527,8.335,5.581a86.535,86.535,0,0,0,11.1,1.824l4.924.347-1.16,26.085,3.25,7.266c-.423.591-.668.934-.689.959l0,0-5.384,7.584-4.935,2.287L152.2,461.042l-12.311,5.8-7.62-7.558L126.3,455.3l-6.949-4.2-1.477,1.605,6.876,4.158,5.756,3.845,7.339,7.281L115.242,483.64l1.8,1.711,11.655-8.069,6.442,6.278c.481.544,5.1,5.468,14.445,5.895l.784,7.033-15.656,6.865,1.171,1.762,15.729-6.894c1.393.711,4.775,2.243,7.759,2.09.766-.036,1.474-.1,2.159-.157a13.332,13.332,0,0,1,6.613.565c3.287,1.251,6.143.981,8.9.719.471-.047.941-.091,1.419-.128a26.939,26.939,0,0,0,3-.456,17.355,17.355,0,0,1,7.686-.161c1.284.281,2.429.569,3.535.843a31.816,31.816,0,0,0,7.883,1.295c.27,0,.54,0,.813-.018,2.656-.113,6.657-.54,8.952-.8l9.444,40.972c-2.291.376-6.938,1.39-8.507,3.56a14.641,14.641,0,0,0-1.4,2.429,5.627,5.627,0,0,1-2.408,2.874c-2.258,1.408-4.691,2.772-5.337,3.13l-11.137-4.968-14.383-6.343,3.367-19.031-7.285-5.443-26.64-6.216a3.972,3.972,0,0,1-2.258-5.282l.026-.069a2.253,2.253,0,0,1,1.485-1.24,6.244,6.244,0,0,1,4.629.387,12.131,12.131,0,0,1,3.465,2.535,7.305,7.305,0,0,0,4.644,2.517c1.773.142,7.737.792,12.53,1.31,5.84.638,6.438.7,6.646.7.416,0,11.439-.346,13.643-.416l-.095-2.006c-5.125.164-12.833.4-13.511.419-.452-.033-3.451-.361-6.354-.678-4.811-.522-10.8-1.175-12.61-1.321-1.138-.091-1.849-.719-3.013-1.824a14.632,14.632,0,0,0-4.122-2.977,9.177,9.177,0,0,0-6.847-.474,4.381,4.381,0,0,0-2.889,2.59,6.57,6.57,0,0,0-.419,1.966,19.01,19.01,0,0,0-6.741,1.142c-3.739,1.43-7.4,3.323-7.555,3.4l1.331,1.689c.033-.018,3.688-1.9,7.277-3.276a16.29,16.29,0,0,1,5.982-.945,6.669,6.669,0,0,0,3.772,3.7l.091.033,26.286,6.136,5.9,4.406-3.429,19.362,15.89,7.011,21.865,9.751,12.147-1.025,1.335,5.8,2.156,10.911,1.62,13.989,2.459-.186-1.623-14.022-2.17-11.02-17.057-73.992V475.757c-.011-.219-2.061-53.283-2.061-53.283-.007-.15-.077-1.5-.19-3.334l.1-.241-.117-.033c-.084-1.4-.193-3.042-.314-4.633a28.158,28.158,0,0,1,5.278-1.857l.507.489a9.117,9.117,0,0,0-1.813,5.9L211.62,477.1l-.08,14.394,5.975,25.458,2.473,11.089,5.712,24.725,4.782,20.92,2.309,17.546,3.072-.266-2.316-17.59-.007-.047-4.8-21.022-5.712-24.717L220.55,516.5l-5.92-25.235.08-14.153,0-1.452c2.371-1.828,11.294-8.8,12.76-11.115,1.609-2.542,1.28-7.6,1.218-8.415.044-.792.394-8.211-1.339-11.523-1.963-3.768-8.423-3.692-8.959-3.681H214.9l.117-22.16c0-2.532.748-4.344,2.221-5.384a6.9,6.9,0,0,1,4.191-1.014l.109.015,47.184.252,9.845,2.167c-.642,2.769-1.565,6.332-1.576,6.373l-.018.069-.792,14.591v0l-.689,12.672h0c-.026.365-.051.8-.069,1.277l-.1,1.893-.678,8.594a10.466,10.466,0,0,0-2.156,2.2.792.792,0,0,0,.372,1.2,1.282,1.282,0,0,0,.554.124,1.152,1.152,0,0,0,.93-.43l.062-.077-.113,1.426-2.572,45.338-9.047,36.576-1.981,14.062v28.259a1.106,1.106,0,0,0,2.163,0V560.79l1.944-13.854,9.072-36.667,2.579-45.459.288-3.662a6.411,6.411,0,0,1,3.786-.912c1.642.919,3.144,1.791,3.155,1.8a5.646,5.646,0,0,1,1.612,1.7l.014.671.007.084c.011.131,1.372,13.117.821,19.038-.5,5.373-2.973,15.463-4.454,21.493-.171.7-.328,1.335-.463,1.9-1.273,5.249-6.033,26.158-6.077,26.362-.306,1.3-7.511,31.743-7.894,34.322-.4,2.626-.029,20.333-.015,21.081l3.09-.04c-.106-5.078-.317-18.7-.011-20.734.376-2.495,7.788-33.84,7.865-34.165.047-.212,4.8-21.11,6.074-26.341.135-.562.292-1.2.463-1.9,1.492-6.084,3.991-16.265,4.505-21.788.558-6.011-.719-18.432-.821-19.4l-.036-1.521a8.7,8.7,0,0,0,3.425,3.25c.668.317,1.59.744,2.685,1.237l-.379.624-2.426,13.38-2.313,10.181-6.026,26.1-5.176,22.675-6.125,28.267-.39,20.128,3.09.04.241-12.574,9.492,1.215a2.451,2.451,0,0,1,2.346,2.225v9.823a1.262,1.262,0,0,0,2.47,0v-9.823c0-2.1-1.864-3.874-4.428-4.2l-9.838-1.259.1-5.337,1.156-5.333,14.843-.9,10.965,5.847-6.581,20.756a1.009,1.009,0,0,0,.89,1.222,1.782,1.782,0,0,0,.31.029,1.226,1.226,0,0,0,1.2-.751l1.966-6.212,6.964,1.693a8.623,8.623,0,0,0,1.992.233,8.206,8.206,0,0,0,1.12-.073l9.076-1.207a4.566,4.566,0,0,0,3.772-2.7l2.659-7.248,10.294.387v8.85l-3.119,6.672a.959.959,0,0,0,.719,1.291,1.5,1.5,0,0,0,.438.062,1.245,1.245,0,0,0,1.153-.646l3.283-7.015v-9.123l7.518.284a6.326,6.326,0,0,0,4.487,5.173,27.124,27.124,0,0,0,6.894.678c2.134,0,4.144-.113,5.388-.2l.2,2.068-2.926,8.087,2.375.562L365.2,582.8l-.233-2.437,6.252-.31a5.423,5.423,0,0,0,3.546-1.474,3.492,3.492,0,0,0,1.069-3.1l-.109-.649c-.4-2.265,1.455-4.432,4.213-4.935l12.176-2.2,1.9,6.734c.007.036.007.073.018.109s.026.058.036.084l3.371,11.961a.709.709,0,0,0,0,.427.812.812,0,0,0,.219.339l.992,3.531,2.71-.5-.872-3.1,12.092-2.5,2.174,5.833a1.08,1.08,0,0,0,1.036.624,1.3,1.3,0,0,0,.31-.04.863.863,0,0,0,.726-1.091l-2.338-6.271,3.666-5.056.47.813,17.031,5.318c-.708.934-1.266,1.663-1.434,1.853a.753.753,0,0,0-.168.981,1.137,1.137,0,0,0,.97.485,1.3,1.3,0,0,0,.481-.091c.288-.117.394-.16,2.663-3.185l.011-.018c.638-.85,1.448-1.937,2.48-3.327l.139-.186.522-7.226,14.474,4.512,7.613,2.057a1.283,1.283,0,0,0,.492.131l16.937,4.578,14.059,4.687,4.027,8.386,2.59-.817-6.405-13.34a15.934,15.934,0,0,0,5.833-2.415,14.9,14.9,0,0,0,5.242,1.061,16.979,16.979,0,0,0,2.82-.274c1.605,5.61,3.345,11.695,3.371,11.8a1.063,1.063,0,0,0,1.054.679,1.39,1.39,0,0,0,.244-.022.889.889,0,0,0,.81-1.054c-.047-.168-4.877-17.068-5.869-20.5a12.537,12.537,0,0,0-3.374-5.136,9.692,9.692,0,0,0,1.058-.175c1.328-.292,5.308-.839,6.763-1.032.646,2.152,1.295,4.527,1.86,6.723.919,3.564,5.136,18.855,5.18,19.009a1.054,1.054,0,0,0,1.054.686,1.335,1.335,0,0,0,.237-.022.891.891,0,0,0,.817-1.047c-.04-.153-4.257-15.434-5.173-18.987-.66-2.572-2.94-11.166-4.406-13.683-1.375-2.36-7.9-9.247-10-10.739-2.411-1.718-5.763-.263-6.1-.109l-14.1,6.022c-1.076-2.962-2.006-5.548-2.3-6.409-.489-1.448.1-4.892.759-7.4.069-.263.124-.529.168-.8l.821-5.191a8.252,8.252,0,0,0,.051-2.141l-.463-4.184a8.447,8.447,0,0,0-.927-2.984,10.463,10.463,0,0,0-3.681-3.9l-1.248-.8c-.091-.058-.186-.113-.284-.168a2.692,2.692,0,0,1,1.707.19l1.725.817a1.657,1.657,0,0,0,1.879-.284,1.012,1.012,0,0,0-.423-1.634l-1.776-.846a6.076,6.076,0,0,0-4.837-.106l-1.824.759-.1-.011-20.311-1.645a7.694,7.694,0,0,1-4.925-2.214l-1.966-2.061c-.584-.649-19.41-21.664-21.73-24.2-2.141-2.338-2.7-4.665-2.4-9.962a10.442,10.442,0,0,1,2.035-5.877,2.6,2.6,0,0,1,.128.8v5.311c-.077.759-.606,7.6,5.176,10.385l17.754,14.139c.675.631,7.806,7.12,15.084,7.12.1,0,.2,0,.288,0,6.854-.164,22.594-1.131,23.222-1.171,2.039-.08,7.715.186,9.71,2.382,2.769,3.042,12.953,14.128,13.665,14.9l11.622,15.448,3.214,8.051,3.925,20.522,13.373,23.017,2.513-.963-13.2-22.718-3.885-20.293-.015-.088-3.334-8.346-.047-.128-11.83-15.722-.069-.088c-.109-.117-10.845-11.8-13.694-14.934a7.43,7.43,0,0,0-2.207-1.6l6.351-12.3a8.552,8.552,0,0,0,.813-5.687,9.171,9.171,0,0,0-1.733-3.743l-.259-.343a12.214,12.214,0,0,0-5.249-3.856l-18.87-7.485-1.069-.985a.972.972,0,0,0,.142-.182l4.082-6.949a2.305,2.305,0,0,0,.117-2.2,3.15,3.15,0,0,0-1.879-1.59l-2.1-.733a3.829,3.829,0,0,0-4.494,1.375l-3.2,5.439a2.569,2.569,0,0,0,1.463,3.67l3.316,1.47,2.284,2.1,19.257,7.635a10.15,10.15,0,0,1,4.359,3.206l.263.339a7.656,7.656,0,0,1,1.437,3.112,7.087,7.087,0,0,1-.675,4.72l-6.307,12.22a27.43,27.43,0,0,0-7.952-.937l-.033,0c-.04,0-1.156.073-2.907.175l1.193-5.151a.906.906,0,0,0-.864-1.021,1.086,1.086,0,0,0-1.262.7l-1.295,5.6c-5.348.306-13.548.755-17.973.857-.073,0-.142,0-.212,0-6.194,0-12.939-6.307-13.008-6.369l-.04-.036-10.991-8.755a1.056,1.056,0,0,0-.026-.441c-.018-.091-1.948-9.134.934-16.371,2.9-7.285,16.514-20.03,20.942-22.047,4.563-2.083,15.292-3.582,21.763-2.327,3.236.627,9.736,3.184,18.3,7.208a18.031,18.031,0,0,0,13.818.478L521,457.605,549.89,520.57l29.865,64.6a1.415,1.415,0,0,0,1.306.733,1.639,1.639,0,0,0,.489-.073,1.076,1.076,0,0,0,.81-1.448l-29.864-64.6-29.211-63.661,4.4-4.344Zm-406.3-266c1.791-1.175,4.191-2.765,7.423-4.928l13.508,14.828-7.974,4.614Zm20.818,24.7-6.413,1.076-.471-9.364,8.466-4.9,1.776,1.952a1.438,1.438,0,0,0,.106.106l1.423,1.244,3.1,8.288Zm10.666-1.339-1.933-5.162,3.447,3.024Zm69.64,347.207-11.18.941-7.635-3.4c1.105-.624,2.809-1.609,4.425-2.615a7.616,7.616,0,0,0,3.2-3.732,13.611,13.611,0,0,1,1.233-2.148c.908-1.258,4.3-2.185,6.832-2.608Zm248.779-84.049-3.221-1.426a.967.967,0,0,1-.551-1.379l3.2-5.443a1.347,1.347,0,0,1,1.171-.6,1.572,1.572,0,0,1,.514.088l2.108.73a1.2,1.2,0,0,1,.7.6.871.871,0,0,1-.044.824ZM544.5,370.974a63.378,63.378,0,0,0,.051,7.536,39.172,39.172,0,0,0,1.091,5.588,25.407,25.407,0,0,1,.989,5.661c-.058,2.16-2.382,10.819-3.6,15.1l-.485,2.159-2.419-3.538c.328-1.291,1.463-6.037,1.255-9.174-.244-3.666-3.721-12.133-5.122-14.595-.941-1.649-1.736-6.256-2.1-8.777C536.941,370.909,540.6,370.93,544.5,370.974ZM534.3,380.448c1.313,2.3,4.7,10.542,4.921,13.953.223,3.345-1.273,8.974-1.288,9.032l-.088.317,4.144,6.07c.551,1.857,2.305,7.361,3.969,8.441l.2.128a5.045,5.045,0,0,0,2.721,1.083,4.192,4.192,0,0,0,2.813-1.313,10.869,10.869,0,0,0,1.353-1.569,4.557,4.557,0,0,1,2.925-2.156c-.157.343-.306.7-.46,1.087-.8,1.959-1.711,4.177-4.417,5.7-2.626,1.477-4.479,1.025-6.825.456a17.388,17.388,0,0,0-4.279-.657l-.077,0c-8.583.365-8.025,10.009-7.726,15.189a25.205,25.205,0,0,1,.08,2.586,11.775,11.775,0,0,1-1.59,4.509,5.128,5.128,0,0,1-1.718,1.733,1.7,1.7,0,0,0-.3.241l-.941.93-5.84-14.635c-.036-.12-3.659-12.107-3.137-16.991.044-.449.091-.883.142-1.306.1-.474.2-.963.3-1.466,2.8-13.781-1.609-28.267-1.8-28.879L512.1,369.056a144.13,144.13,0,0,0,19.884,1.882C532.271,372.97,533.107,378.357,534.3,380.448Zm-51.062,25.429a.745.745,0,0,0-.12-.241c-.824-7.777-1.846-15.729-2.677-16.864a12.189,12.189,0,0,1-1.175-3.918c.441-.044,1-.1,1.634-.164,1.638-.161,3.819-.383,6-.6,4-.4,8-.813,8.638-.876.9,1.368,2.933,4.122,5.173,4.8a10.69,10.69,0,0,1,1.952.686c.073.051.095.1.15.558l.026.193a11.916,11.916,0,0,1-.157,1.827c-.306,2.451-.821,6.559.168,10.382s1.959,6.825,2.4,8.135l-21.558,1.59c-.153-1.594-.321-3.283-.5-4.99A.7.7,0,0,0,483.234,405.876Zm-22.733,8.2a6.526,6.526,0,0,0-3.732-3.374,14.964,14.964,0,0,0-4.881-.543c-1.769,0-3.443-.011-4.512-.624-.762-.438-1.255-1.89-1.638-3.451h7.814a.9.9,0,1,0,0-1.755h-8.2c-.011-.051-.018-.1-.029-.15a22.012,22.012,0,0,0-1.127-4.151l17.115.832h.066a1.012,1.012,0,0,0,1.08-.824.964.964,0,0,0-1.018-.923l-18.326-.894c-1.262-1.784-3.144-4.031-4.366-5.453h4.87a10.138,10.138,0,0,0,4.465-1.018l17.283-8.536a7.747,7.747,0,0,0,1.47-.934l5.756-4.666,3.837,2.82c.343,2.98,1.043,7.726,2.138,9.225.6.941,1.51,7.916,2.342,15.766a5.517,5.517,0,0,0-4.082,3.108l-5.143,12.815a3.431,3.431,0,0,1-3.006,1.948c-7.048.533-9.893.722-11.042.8-.434-1.685.522-2.918,1.587-4.293a16.76,16.76,0,0,0,1.061-1.474A4.439,4.439,0,0,0,460.5,414.076Zm-81.269,14.453c-.029.044-.055.088-.08.135a11.3,11.3,0,0,1-.868,1.248c-.248.328-.518.686-.792,1.083-.237.347-.89.215-.9-.179a22.7,22.7,0,0,0-.66-4.76l-.511-2.061a26.241,26.241,0,0,0-3.721-8.277,23.34,23.34,0,0,1-4.1-13.022,7.337,7.337,0,0,0-1.514-4.381.631.631,0,0,1,.292-.97l1.1-.525a.9.9,0,0,1,1.291.529c.5,3.889,1.1,8.521,1.415,10.859.576,4.2,4.406,8.955,7.482,12.778.441.551.872,1.087,1.277,1.6a5.8,5.8,0,0,1,1.466,3.053l-1.331.142a1.393,1.393,0,1,0,.153,2.747Zm.248,18.042a10.257,10.257,0,0,0-3.837.813l.044-.806h.055c0-.08.033-.642.157-2.729.018-.3.481-.419.711-.186Zm23.127,23.163a2.587,2.587,0,0,1,.46,3.283l-20.256,12.428a6.026,6.026,0,0,1-3.356.839l-5.822-.226,1.259-24.181h4.151l6.967,1.554.073.015c8.372,1.353,11.016,1.762,11.9,1.882C398.328,465.62,399.39,466.579,402.607,469.734ZM362.69,485.65l-.813-.792,8.988.945-.186,3.6Zm-15.332-4.841.97-14.971H371.9l-.9,17.455ZM372.776,449h-7.314a3.22,3.22,0,0,1-3.086-1.838,2.105,2.105,0,0,1-.135-1.014l.894-8.124a1.314,1.314,0,0,1,.967-1.069,1.848,1.848,0,0,1,1.616.2l7.5,5.038c-.095,1.594-.157,2.6-.193,3.239l-.062,0Zm1.01-16.214c-.193,3.2-.343,5.647-.456,7.529L366.9,436a4.071,4.071,0,0,0-3.517-.427,2.907,2.907,0,0,0-2.1,2.32l-.894,8.124a3.424,3.424,0,0,0,.212,1.6,5.069,5.069,0,0,0,4.859,2.893H372.7l-.679,13.085H328.6l-4.892-7.788,2.929-.974a1.184,1.184,0,0,0,.846-1.631,1.588,1.588,0,0,0-1.43-.781,1.921,1.921,0,0,0-.587.095l-24.9,8.27.033-14.219V431.571l.1-.044-.1-.131v-.529l0-.058c-.015-.306-.285-7.493,9.207-11.075,8.569-3.239,30.878-11.374,38.882-14.288l5.694,13.617-17.115,6.416a.821.821,0,0,0-.529,1.167,1.132,1.132,0,0,0,.985.507,1.3,1.3,0,0,0,.452-.08l16.9-6.34,2.433,5.826a1.094,1.094,0,0,0,1.025.595,1.323,1.323,0,0,0,.562-.124.817.817,0,0,0,.452-1.058l-8.879-21.252c.569-.208,12.519-5.855,12.519-5.855a5.517,5.517,0,0,1,1.627,3.878,25.242,25.242,0,0,0,4.505,14.153,24.191,24.191,0,0,1,3.371,7.544l.511,2.061A20.679,20.679,0,0,1,373.786,432.786ZM334.3,515.631a3,3,0,0,1-1.222-1.372c-.631-1.514-1.372-3.433-1.532-3.976-.069-.595-.456-5.636-.744-9.44,1.014-.179,2.681-.522,5.548-1.109a5.809,5.809,0,0,1,5.424,1.623l.843.967a1.639,1.639,0,0,1-.507,2.553,3.227,3.227,0,0,0-1.689,2.6l-.456,11.086a.625.625,0,0,1-.675.533h-2.626A4.74,4.74,0,0,0,334.3,515.631Zm5.308,28.876h4.086l9.342,8.032v.354l-16.2-4.651a8.965,8.965,0,0,0-3.961-.219l-2.138.358v-14.1h4.085l.084,2.119.627,5.114C335.736,543.219,337.487,544.507,339.6,544.507Zm-6.8-27.282a2.761,2.761,0,0,1,1.408,2.2l.525,12.851h-15.12l.379-17.287.16-13.986c2.944-.018,6.467-.033,8.178-.018.711,9.433.755,9.586.781,9.681.164.591.992,2.721,1.62,4.232A5.053,5.053,0,0,0,332.8,517.225Zm-4.542,17.057V548.8l-8.806,1.481V539.542l.117-5.26Zm-9.382-59.539-4.133-2.67-4.669-5.614c-.208-.35-1.536-2.688-.762-4.6a3.928,3.928,0,0,1,2.426-2.079v-.007l9.393-3.119,5.318,8.459Zm10.3-8.9h16.054l-.948,14.646-19.724-2.068-3.495-2.262Zm-45.305-52.466-2.543-.558a31.132,31.132,0,0,1,2.174-4.078A25.555,25.555,0,0,0,283.872,413.372Zm.423-10.389a60.167,60.167,0,0,1-10.378-9.149c-.084-.095-.168-.19-.252-.288.463.215.948.419,1.463.613a22.934,22.934,0,0,0,8.1,1.437,26.578,26.578,0,0,0,5.282-.547A20.394,20.394,0,0,0,284.3,402.984Zm9.667-8.175a11.055,11.055,0,0,0-1.32,5.815,9.655,9.655,0,0,1-4.574,2.389A27.664,27.664,0,0,1,293.962,394.809ZM287.14,414.3a18.18,18.18,0,0,1-.179-7.959l10.276,5.957.106,2.09Zm2.6-9.353a12.555,12.555,0,0,0,3.159-1.415,9.639,9.639,0,0,0,1.193,3.352,12.5,12.5,0,0,0,.828,1.481Zm2.273-13.829c-6.548,2.488-11.68,1.919-15.273.627-3.961-1.423-6.548-4.592-6.723-8.105v-.077L269.7,378.1c3.057-.711,11.574-2.586,15.211-2.2a27.36,27.36,0,0,1,9.178,2.393c1.087.511,3.972,2.119,6.241,3.4C297.226,385.215,294.337,388.491,292.014,391.114Zm-87.747,44.62c.74-1.029,1.346-1.9,1.849-2.637l.427,10.8a8.927,8.927,0,0,0-3.411-1.441,13.854,13.854,0,0,0-4.148-.274A70.263,70.263,0,0,0,204.266,435.733Zm-.2-6.446,1.736-4.173.15,3.775a26.1,26.1,0,0,1-1.864,3.046A3.611,3.611,0,0,1,204.062,429.288Zm1.609-26.64-9.889-6.059-5.8-3.637,11.6-13.22V366.914a7.434,7.434,0,0,1,3.557-6.125l1.977-1.321c4.99,5.114,7.547,11.563,6.792,18.1a19.184,19.184,0,0,1-.551,2.889,160.4,160.4,0,0,1-5.424,15.747C207.714,396.735,206.557,399.591,205.671,402.648Zm-1,6.57c.135.919.274,2.305.4,3.837a14.377,14.377,0,0,0-4.541,3.889c-.558.773-1.426,1.981-2.5,3.469V400.795l7.015,4.293A12.537,12.537,0,0,0,204.675,409.218Zm.036-58.116c.164.011.332.018.5.018l.142,0c1.419-.022,4.18-.124,7.573-.277l-3.761,3.4A25.489,25.489,0,0,0,204.711,351.1Zm.6-2.24-.091,0c-4.746,0-6.664-5.381-6.683-5.435l-.022-.062-18.677-37.423c2.831-.737,6.4-1.62,10.371-2.579l6.712,14.453a83.329,83.329,0,0,0,8.346,14.088,80.689,80.689,0,0,1,8.919,15.492c.157.365.3.733.441,1.105C210.424,348.7,206.933,348.84,205.313,348.861Zm-10.568-7.044-.328.077-.416.1-17.94-35.022c.244-.066.485-.139.73-.208l.4-.109Zm13.179-11.188a81.411,81.411,0,0,1-8.109-13.694l-6.635-14.285c7.992-1.911,17.13-4.024,24.874-5.793.536-.051,3.458-.241,4.472,1.445,1.7,2.809,14.558,20.289,15.343,21.358L254.752,345.1l.365,1.087-13.311.927c-.2.015-13.355.73-24.021,1.244-.2-.6-.427-1.2-.682-1.787A82.7,82.7,0,0,0,207.925,330.63Zm-1.01-78.132,15.2-2.714,3.611,11.038-15.383,7.226-4.326-6.263,1.6-3.385Zm19.468,10.334,1.218,3.721,1.638,10.2.015.062,3.586,11.177c-2.433.562-4.884,1.127-7.328,1.7l-3.8-5.176L211.555,269.8ZM295.95,237.7c-.456-2.316-.868-4.447-1.211-6.209-.456-2.364,1.258-4.6,4.071-5.311l5.72-1.459a3.912,3.912,0,0,0,1.846.449,3.534,3.534,0,0,0,2.933-1.4,4.548,4.548,0,0,1,1.156.835c1.554,1.525,5.464,6.606,5.847,7.11a5.264,5.264,0,0,0,4.45,2.138,7.206,7.206,0,0,0,.824-.047c.875-.1,3.713-.438,7.336-.861,8.222-.974,20.65-2.437,23.295-2.729a58.347,58.347,0,0,1,10.688.226L362.7,236.1l7.737,6.73a1.523,1.523,0,0,1,.54,1.51,1.829,1.829,0,0,1-1.178,1.248l-22.576,9.043-.047.011-1.156.471-1.233.492-.044.025-7.978,3.221-2.929-3.659a1.273,1.273,0,0,0-1.474-.325.787.787,0,0,0-.372,1.233l2.831,3.538-14.854,6-2.805-3.925a1.223,1.223,0,0,0-1.284-.416c-.671.182-.937.8-.6,1.273l2.75,3.852-3.768,1.521a65.47,65.47,0,0,1-9.05,2.911l-6.376,1.558c-.686-2.2-2.984-9.915-2.856-14.135.036-1.226.124-2.7.226-4.268C296.511,248.909,296.905,242.55,295.95,237.7Zm9.057-15.27a1.3,1.3,0,1,1,1.277,1.029A1.176,1.176,0,0,1,305.007,222.426ZM405.985,147.7l24.816.675-.306,7.854h-24.4l-15.981,3.458-.314-11.866-.244-9.44,12.574.719v5.37C402.129,146.22,403.822,147.635,405.985,147.7Zm-1.072-3.232v-5.209l26.184,1.5-.208,5.366-24.812-.675A1.091,1.091,0,0,1,404.913,144.465Zm69.921,17.878-9.014,3.1a9.75,9.75,0,0,1-5.355.252L449.2,163.029l-.029-.007-4.06-.879.551-19.983,25.046,2.51ZM473.6,144.91l18.728,1.175v13.479h-5.453a1.676,1.676,0,0,0-.357.036l-9.036,1.937ZM448.442,165.2l11.242,2.659a13.266,13.266,0,0,0,7.223-.339l10.028-3.447h0l.649-.223,9.466-2.032h5.271v7.631c0,1.773,1.642,3.25,3.819,3.433l8.941.755-.547,15.04-22.591-.314-16.466-3.166-16.973-.5-2.645-.244-.8-19.979Zm83.45,114.715-4.118-12.767,8.871-1.237,3.2,12.651Zm8.262-.128,3.681,14.558-6.851,1.364-4.7-14.58Zm-12.833-14.1-2.251-7.708,19.417-1.616.284,1.262,1.182,5.464Zm9.608,38.772-19.165,2.568c-2.856-6.843-14.391-34.5-15.146-36.223a27.312,27.312,0,0,1-1.145-4.91c-.274-1.543-.562-3.137-.908-4.326-.635-2.167-3.433-2.911-5.315-3.166l.157-.4,6.745.766,20.118-.606,2.539,8.707.011.025Zm-41.669,77.019-.248.026-.857-2.936a1.121,1.121,0,0,0-1.306-.653.892.892,0,0,0-.8,1.058l.806,2.754c-5.253.533-11.48,1.16-13.883,1.4-.161-1.047-.3-2.123-.416-3.126l-.007-.058c-.04-.347-.077-.689-.106-1.018,1.233-4.622,6.26-9.5,7.325-10.491l21.35-4.753.12.252,5,13.136Zm17.622-2.739,1.59,4.173-6.376.923-2.243,2.4-2.692,1.2-.044.026c-.441-.186-1.036-.372-1.868-.62-1.525-.463-3.228-2.568-4.195-3.991Zm-34.836-4.1-.4-4.4,4.545-1.01A33.059,33.059,0,0,0,478.047,374.629Zm-.562-6.179-1.528-16.8c.051-.857.343-6.318-.631-8.16-.562-1.061-2.061-1.809-3.48-2.305,6.234-3.2,15.124-7.759,19.662-10.09l14.821,30.937Zm-42.416,13.26a80.591,80.591,0,0,1,.514,9.305H415.444l-2.2-8.576-1.007-.81c1.813-.2,3.385-.372,3.622-.383.383,0,.595,0,3.994-1.857a5.655,5.655,0,0,0,3.144-4.472c.193-3.071,1.97-8.634,11.731-11.407,1-.244,2.608-1.346,1.853-3.878-.46-1.547-1.054-3.732-1.415-5.085,3.112-1.01,6.57-2.145,10-3.268.514,1.156,1.189,2.626,1.733,3.615l-.387,7.292-5.49,8.248C440.2,371.2,434.445,376.727,435.069,381.71ZM311.143,336.317a30.8,30.8,0,0,1-3.221-3.454l-17.378-21.869-.025-.033-6.143-6.241,14.664-6.854,5,7.573a20.861,20.861,0,0,0,7.39,6.664l18.436,10.181a23.177,23.177,0,0,1,4.873,5.479c1.569,2.521.664,5.566-2.145,7.245-4.957,2.958-8.911,4.549-11.107,4.509C316.9,339.41,311.971,336.776,311.143,336.317Zm5.424,4.173-4.067.43v-1.89A31.266,31.266,0,0,0,316.567,340.49Zm-52.408-18.808a1.223,1.223,0,0,0-1.474-.332l-10.44,4.76-3.48-4.742,19.826-9.269,7.959,10.476-19.928,9.5-3.272-4.458,10.4-4.742A.793.793,0,0,0,264.159,321.682Zm13.526,2.386,14.449,19.012-14.442,1.532-12.559.876-.657-2.714-6.748-9.192Zm-7.223-12.844,12.016-5.618,6.278,6.376L306.1,333.811a33.025,33.025,0,0,0,3.425,3.67.728.728,0,0,0,.109.1c.073.066.139.135.208.2l.492.441v2.929l-15.857,1.682ZM390.77,183.653l17.4-.383,21.318,1.948c-.029,4.512-.113,12.33-.4,15.149-.365,3.67-3.794,6.65-3.83,6.679l-.044.047a10.968,10.968,0,0,0-2.572,3.3l-2.167,4.326a9.175,9.175,0,0,0-.518,1.24l-4.056,12.016-24.535.456.485-16.977v-.029Zm17.622-2.634-.1-.007-17.593.39-.522-19.4,16.284-3.524h23.951l-.908,23.379v.036c0,.022,0,.409,0,1.061Zm-17.207,49.427,25.144-.467,6.037,8.069-16.674.562-15.156-4.392Zm15.208,10.144L423.925,240l9.988,10.418-26.523,2.75-6.7-.93Zm95.419-42.048.073-.066,2.287-2.181-.868,13.9-.062.332a18.785,18.785,0,0,0-9.364-5.523ZM490.6,204.482c-1.175-.011-3.848-.04-7.438-.077V190.632l21.3.3-.062,1.678-4.6,4.381Zm13.216,17.495.73-3.608,18.983.2-.306,8.335L510.2,227.5l-7.394-1.269Zm5.993,7.755a1.522,1.522,0,0,0,.365.022l12.964-.587-1,26.994-19.859.595-7.212-.821,4.253-15.011,2.958-12.483ZM474.6,360.556c-2.634.241-9.16,1.306-12.519,5.931-.193-.077-.379-.15-.573-.222a13.159,13.159,0,0,1-4.673-2.794c-.657-4.315-4.195-6.5-6.322-7.81a7.6,7.6,0,0,1-1.273-.872,2.858,2.858,0,0,1-.186-.288.844.844,0,0,0-.212-.376c-.489-.894-1.142-2.316-1.671-3.505,9.116-3,17.444-5.771,17.579-5.815l.124-.044.117-.058s1.817-.93,4.549-2.335c1.481.368,3.389,1.029,3.8,1.809.606,1.142.6,5.169.456,7.438l0,.055ZM413.383,326.5c-.576,0-2.178.394-10.6,2.459-4.833,1.186-9.634,2.375-9.98,2.462l-1.638.358.8-12.614c3.969-1.244,7.606-2.389,7.941-2.491,3.732-1.032,7.945-2.174,8.525-2.291-.025,0-.08.007-.157.011.259-.015,1.715-.244,21.037-3.9l23.579-4.283.343,4.206-2.517,5.745-.675,4.8-21.033,2.991-.036,0c-5.61.941-14.744,2.448-15.7,2.55A.542.542,0,0,1,413.383,326.5Zm-3.112-51.084c.857.055,9.955,1.488,15.908,2.444l.463.981a6.828,6.828,0,0,1,.646,3.462l-1.2,14.956a19.052,19.052,0,0,0,.274,5.027l.471,2.5.485,4.027c-7.861,1.488-18.574,3.5-19.253,3.593-.4.055-1.766.383-8.988,2.378l-.047.015c-.04.015-1.175.372-2.864.9l-4.516-39.422a1.475,1.475,0,0,1,1.689-1.441C398.766,275.027,409.429,275.406,410.271,275.413Zm-1.656-20.351L420.77,253.8l1.755,14.631a12.026,12.026,0,0,0,1.113,4.027l1.634,3.465c-5.081-.813-13.282-2.112-14.777-2.251Zm46.411,50.755.828-.153a21.576,21.576,0,0,0,2.648-.653l3-.941a25.2,25.2,0,0,0,4.589-1.952,22.92,22.92,0,0,1,4.815-.456c4.169.088,7.1,1.532,8.693,4.279l1.273,2.309.492,1.065L470,309.093c-2.389-.051-4.377,1.437-4.516,3.374l-.642,9.021-12.61-.642.6-4.3,2.583-5.895Zm19.9-10.363,2.831,6.088a16.235,16.235,0,0,0-8.335-1.627l.062-.047,4.786-3.859C474.487,295.826,474.709,295.644,474.921,295.454Zm-10.8-15.769,1.6-2.4a.768.768,0,0,1,.919-.226l14.573,6.314c-1.5,2.247-3.994,5.753-5.541,7.908-.15.2-.3.4-.46.6Zm-45.335,69.027,1.288-21.237c2.28-.376,5.319-.879,9.378-1.561l20.3-2.885-3.549,25.21c-.186.062-.376.124-.562.182a1.311,1.311,0,0,0-.544.033,1.051,1.051,0,0,0-.533.325c-5.038,1.652-10.192,3.338-14.237,4.64a38.913,38.913,0,0,0-6.581,2.78l-3.414-3.542A5.227,5.227,0,0,1,418.785,348.712Zm44.663-6.183c-.978.325-7.449,2.477-14.967,4.957l3.469-24.648,36.565,1.864,1.864,4.009c-.124.066-.248.124-.372.19C483.026,332.49,465.05,341.708,463.449,342.529Zm3.243-20.946.642-9.028a2.411,2.411,0,0,1,2.626-1.959l12.107.233,5.494,11.815Zm10.608-27.4,32.064-1.82c2.6,6.227,5.063,12.132,6.238,14.949l-30.309,4.056Zm.033-1.259c.164-.2.321-.416.474-.627,1.948-2.707,5.384-7.536,6.519-9.437,1.59-2.652,4.319-7.657,4.345-7.708l.029-.051,5.888-15.007c1.346.15,3.495.591,3.874,1.875.328,1.113.605,2.667.875,4.173a27.583,27.583,0,0,0,1.244,5.245c.423.97,4.414,10.513,8.269,19.749Zm9.05-18.531c-.281.514-2.685,4.906-4.18,7.423l-14.544-6.3a3.215,3.215,0,0,0-3.841.934l-1.12,1.674-.832-.908,5.4-15.467a.879.879,0,0,0-.8-1.091,1.146,1.146,0,0,0-1.295.664l-4.928,14.117-16.59-18.075a.924.924,0,0,0-.164-.237l-1.255-1.31-.12-.128h0l-3.582-3.735,3.279-.339,20.738-1.977,29.886,7.912a1.6,1.6,0,0,0,.463.248Zm-46.13-17.363,19.282,21.008a.888.888,0,0,0,.387.419l1.054,1.153,12.7,13.964c-.368.354-.752.689-1.153,1.018l-4.789,3.859a20.683,20.683,0,0,1-3.578,2.305h0a23.083,23.083,0,0,1-3.542,1.448l-3,.941a18.01,18.01,0,0,1-2.294.565l-25.866,4.7-.467-3.827-.478-2.564a17.426,17.426,0,0,1-.252-4.647l1.193-14.956a8.18,8.18,0,0,0-.781-4.2l-3.006-6.384a10.552,10.552,0,0,1-.978-3.531l-1.765-14.722,12.76-1.324Zm-33.808-1.959L408.32,273.6c-3.141-.1-9.44-.325-14.887-.522-1.247-.044-2.127-.992-1.853-1.981a7.471,7.471,0,0,1,.671-1.641l7.514-15.328.139.029ZM391.7,295.677l-8.091.558a20,20,0,0,1-5.676-.412l-8.372-1.831c3.02-7.646,6.482-16.411,9.5-24.064l8.251,2.087a2.363,2.363,0,0,1,1.89,1.9l0,.015ZM377.74,297.6a19.986,19.986,0,0,0,5.676.412l8.488-.587,2.17,18.928c-4.6,1.448-11.016,3.458-13.008,4.075-.591.182-1.2.35-1.857.525a49.143,49.143,0,0,0-9.032,3.272c-.664.175-4.7,1.153-7.339-.263a4.637,4.637,0,0,1-2.331-3.3c.106-.726.16-1.386.215-2.032a16.4,16.4,0,0,1,1.288-5.632c.646-1.558,3.418-8.55,6.891-17.334Zm-17.8,41.041c1.306-3.983,3.549-8.5,7.328-10.56a51.108,51.108,0,0,1,12.731-5.227c.678-.182,1.317-.357,1.955-.551,1.383-.43,4.884-1.525,8.434-2.641l-.784,12.464Zm12.052-.573-.463,22.846-11.159,3.341L359.549,362a30.912,30.912,0,0,1-1.842-12.034l.569-3.907a39.187,39.187,0,0,1,1.007-5.205Zm-9.371-9.094a22.177,22.177,0,0,0-4.228,6.854l.292-6.132ZM359.082,312.2a18.379,18.379,0,0,0-1.441,6.252,19.088,19.088,0,0,1-.9,4.844c-1.2,3.7-6.409,3.578-6.628,3.575l-.383-.015-1.051-.128a23.735,23.735,0,0,0,3.765-6.577l.015-.04c.492-1.43,2.014-5.515,3.889-10.52l3.4.967C359.447,311.3,359.221,311.866,359.082,312.2Zm-3.21,18.009-.263,5.512a7.39,7.39,0,0,0-2.437-5.016Zm-6.384-10.794-.04.109c-1.7,4.217-7.646,6.256-12.563,4.3a22.386,22.386,0,0,1-2.3-1.058l-3.4-1.879h0l-18.527-10.228a18.91,18.91,0,0,1-6.7-6.048l-6.643-10.061,7.89-2.86,2.035-.525,23.827-2.112.208,2.017,24.845,5.245C354.515,305.854,350.4,316.783,349.488,319.417Zm-12.811,7.558a21.563,21.563,0,0,0-1.237-1.773A24.269,24.269,0,0,0,342.1,327a41.216,41.216,0,0,0-4.432,3.615A6.35,6.35,0,0,0,336.677,326.975ZM335.3,289.683l-.741-7.3-.456-.336h7.135a3.649,3.649,0,0,0,3.659-2.418l.011-.055a3.785,3.785,0,0,1,1.6-2.16,5.392,5.392,0,0,1,2.991-.875,21.5,21.5,0,0,1,5.811.792l9.032,2.539-.43,1.142c-.219.573-2.48,6.533-5.162,13.624Zm20.719-14.007a24.212,24.212,0,0,0-6.519-.89,7.924,7.924,0,0,0-4.377,1.28,5.521,5.521,0,0,0-2.331,3.159l-.015.055a1.536,1.536,0,0,1-1.539,1.014h-9.5l-2.776-2.057-5.472-7.653c5.526-2.156,14.453-5.65,28.887-11.315l22.3-7.956-9.692,26.881ZM374.4,248.361c-5.326,2-43.9,16.426-52.619,19.833l-.58-.81,15.456-6.245a1.28,1.28,0,0,0,.529-.139.977.977,0,0,0,.237-.175l9.747-3.936,21.609-8.656,8.182-3.148-.985,2.842A9.144,9.144,0,0,0,374.4,248.361Zm-52.867,22.985L327,279l-4.811,1.342a.847.847,0,0,0-.671,1.113,1.086,1.086,0,0,0,1.021.591A1.313,1.313,0,0,0,322.9,282l5.763-1.609,3.808,2.823.42,4.089-24.247,2.149-2.119-5.957,2.816-.879a.84.84,0,0,0,.62-1.134,1.172,1.172,0,0,0-1.4-.5l-2.637.824-1.831-5.151,10.338-2.561C314.506,274.067,314.677,274.024,321.535,271.346ZM304.5,284.128l2.079,5.866-8.3,3.006-1.813-2.747,4.366-4.976Zm-5.052-.3-5,5.7-16.882,8.277L266.789,286.86l-.54-1.1,16.776-3.9c1.747-.431,10.987-2.714,19-4.7l1.871,5.275Zm-4.666,7.584,3.236,4.9-15.011,7.018-4.082-4.148Zm37.306,46.042c-.233.394-.46.792-.671,1.2q-.268.52-.525,1.04l-3.659.157A46.511,46.511,0,0,0,332.088,337.455Zm-.263,15.087a30.574,30.574,0,0,1,7.865-16.222,28.968,28.968,0,0,1,5.928-4.552c2.254-.525,4.374-.879,5.789.011,1.631,1.025,2.367,3.644,2.189,7.788a59.049,59.049,0,0,0,1.89,18.024c.055.27.117.54.175.81l-10.414,1.5a3.869,3.869,0,0,0-2.418,1.251l-11.888,13.81-10.524-5.913c1.415-1.634,2.677-3.09,3.7-4.275l4.906-5.961A12.328,12.328,0,0,0,331.826,352.542Zm-1.091,29.474a19.86,19.86,0,0,1-3.261,1.036l-1.547.35,15.5-18,2.75,8.769a2.388,2.388,0,0,1-1.594,2.882Zm7.522-2.309,4.713,7.438-6.6,3.418c-.212.109-.42.226-.624.346l-2.506-1.941a3.987,3.987,0,0,1-1.087-1.284l-2.342-4.5c.456-.153.9-.317,1.346-.5Zm-8.2-3.724-6.934,8.058L311.8,386.6l-4.687-2.145c4.082-4.753,8.678-10.075,12.413-14.39Zm-7.77,9.028-3.947,4.582-5.391-2.466Zm2.809-.638,2.634-.595c.212-.051.427-.106.638-.16l2.371,4.552a5.23,5.23,0,0,0,1.441,1.7l2.389,1.853a9.654,9.654,0,0,0-2.3,2.546l-.244.394-9.112-2.984-2.951-1.35Zm8.554,10.458a9.015,9.015,0,0,1,3.564-3.214l6.471-3.352,7.463,11.768-4.417-.551-13.267-4.345Zm5.982-15.7L343,377.719a3.094,3.094,0,0,0,2.072-3.732l-2.951-9.4L344.349,362a1.95,1.95,0,0,1,1.222-.631l10.447-1.5c.248.93.536,1.849.865,2.765l2.127,5.862.576,1.445c-.576,1.065-1.839,3.856-.879,6.336.883,2.3,5.909,14.6,7.416,18.279l-2.236,1.069-11.29,3.954Zm21.734-3.524a3.871,3.871,0,0,1-.212-1.729l6.807,17.072c.026.208.084.678.172,1.339C366.173,387.521,362.128,377.6,361.362,375.611Zm.306-7.755-.868-2.4,11.932-3.571,15.054.215-.3,5.782-24.776,2.594Zm11.717-7.212.223-10.772h14.868l-.376,5.975-.255,5Zm.248-12.271.219-10.717,15.612-3.433-.89,14.15Zm16.01,7.533,1.39-22.025,2.437-.536.036-.007c7.485-1.86,18.9-4.665,19.953-4.848a1.577,1.577,0,0,1-.383-.011,35.873,35.873,0,0,0,5.125-.7l-1.266,20.858a6.522,6.522,0,0,0,1.933,4.943l3.352,3.48a49.5,49.5,0,0,0-10.414,8.667l-6.679-4.633-15.737-.223Zm41.818-.164c.536-.168,1.094-.35,1.663-.533.372,1.368.919,3.381,1.35,4.837.427,1.43-.259,1.744-.394,1.791l-.044.015c-10.976,3.108-12.983,9.462-13.2,12.975a3.939,3.939,0,0,1-2.2,3.112c-2.108,1.153-2.805,1.481-3.02,1.568-.846.066-3.451.358-5.318.573l-4.607-3.688q.75-.739,1.5-1.514c1.291-1.353,2.517-2.7,3.7-3.994C416.8,364.408,421.908,358.816,431.461,355.741Zm-20.2,27.57,1.977,7.7H411.7l-7.959,1.627a12.013,12.013,0,0,1-2.827.237l-9.937-.328v-5.526a60.5,60.5,0,0,0,13.3-9.3Zm31.458-11.786.088-.077,5.844-8.784.3-5.756c.084.047.164.095.244.15,2.014,1.24,5.056,3.115,5.519,6.832l.025.212.146.182a13.882,13.882,0,0,0,5.7,3.568c4.06,1.543,8.124,3.63,10.338,8.4l.08.168-5.694,4.614a5.9,5.9,0,0,1-1.065.682l-17.283,8.532a7.55,7.55,0,0,1-3.341.762h-5.873a82.305,82.305,0,0,0-.525-9.481C436.659,377.059,442.656,371.58,442.718,371.525ZM464,367.3c2.849-3.8,8.456-4.753,10.757-4.986l1.419,15.569-3.323-2.44C470.821,371.211,467.527,368.91,464,367.3Zm22.065-54.257,30.236-4.049.022.044,4.724,12.377c-2.612.255-4.757.471-6.212.627-9.521,1.029-15.507,2.488-22.029,5.5Zm37.547-96.725-18.184-.19A58.02,58.02,0,0,1,521.594,205.5l2.419-.058Zm-17.922-3.783.383-2.112.288-4.56,9.6-.226A61.349,61.349,0,0,0,505.69,212.533Zm-.095-52.969H495.108v-13.3l10.943.689Zm-.08,2.251-.35,9.561-8.736-.737a1.322,1.322,0,0,1-1.32-1.193v-7.631ZM446.107,190.6l-.157-3.874,2.294.212,16.86.5,15.277,2.94v14c-10.757-.109-27.085-.263-37.609-.321l.182-6.6a3.572,3.572,0,0,1,1.229-2.535A5.56,5.56,0,0,0,446.107,190.6Zm24.181,15.937v3.819a1.423,1.423,0,0,0,2.783,0v-3.794c9.422.091,17.028.171,17.98.182.916.12,8.481,1.31,11.509,7.507l-1.481,7.321-4.472,18.87-4.246,14.989L462.792,247.6,441.5,249.631l-4.742.492-11.231-11.709-7.069-9.451,4.188-12.4a7.252,7.252,0,0,1,.412-.989l2.167-4.323a8.825,8.825,0,0,1,3.2-3.5,9.059,9.059,0,0,1,4.7-1.445C436.32,206.229,454.978,206.386,470.288,206.532Zm-80.146,29.7,14.066,4.078-5.629,11.483-11.866-2.579Zm7.522,17.44-7.383,15.062-.011.022a3.155,3.155,0,0,1-3.513,1.277l-7.029-1.776c3.239-8.2,5.866-14.868,6.716-17.024ZM360.8,307.941l-3.462-.981c4.177-11.118,9.444-24.995,9.528-25.213l11.549-31.893,5.016.8C380.888,257.112,365.728,295.662,360.8,307.941Zm17.046-65.4c-.044.018-.095.025-.142.044l-4.231,1.627a3.325,3.325,0,0,0-1.233-2.739l-7.04-6.125.168-4.625c.441.058.872.12,1.273.186a62.711,62.711,0,0,0,9.922,1.105c1.55,0,3.586-.131,5.023-.237Zm-71.931,30.244a69.016,69.016,0,0,0,9.44-3.039l3.91-1.579.562.792c-3.571,1.393-6.059,2.364-6.53,2.535-1.375.347-20.905,5.176-31.24,7.73l-17.075,3.969-.237-.485c6.063-1.4,9.933-2.287,10.108-2.327ZM264.9,287.754l16.214,16.466-33.458,15.642-18.706-25.483c3.98-.9,6.508-1.466,6.621-1.488l28.588-6.646Zm-30.251,2.484c-.113.026-3.009.671-7.5,1.685l-.336-.456c13.216-3.064,26.574-6.147,35.836-8.281l.241.485Zm-10.579,2.386c-4.268.967-9.462,2.156-14.909,3.414-.182-.091-.4-.2-.642-.317,4.822-1.124,9.988-2.324,15.226-3.542Zm16.776,25.706-.04-.055c-.135-.182-13.573-18.447-15.226-21.183a5.366,5.366,0,0,0-1.507-1.609c.617-.139,1.218-.277,1.8-.4l35.675,48.607.492,2.017-3.484.241-.62-1.871Zm21.73,29.6,5.61,23.142-1.35,2.01-2.393-2.973-4.574-20.2-.58-1.751Zm3.1-.215,12.289-.857,41.723-4.425,10.108-.43c-.668,1.47-1.277,2.947-1.828,4.417-3.272,1.291-8.817,3.425-12.085,4.421-4.939,1.5-20.424,12.578-21.879,13.624l-9.079,4.122-13.891,1.236Zm5.709,23.842,14.212-1.266,9.568-4.344.1-.044.084-.066c4.6-3.312,17.393-12.169,21.292-13.355,2.838-.865,7.2-2.51,10.487-3.786a27.346,27.346,0,0,1-4.925,8.047c-4.614,5.278-13.088,14.96-20.614,23.521-2.3-1.3-5.253-2.944-6.416-3.487a29.816,29.816,0,0,0-9.98-2.615c-3.936-.416-12.3,1.379-15.737,2.178l-.7-.876Zm24.455,29.372.066-.077-.062-.033a8.714,8.714,0,0,1,1.014-4.224c.478-.689,4.275-5.162,9.021-10.688l16.036,7.332.058.029,25.677,8.4-31.1,9.9a19.485,19.485,0,0,1-11.443.5c-3.976-.967-6.716-3.035-8.149-6.143l-.077-.139A9.046,9.046,0,0,1,295.837,400.926Zm14.2,15.963-1.532.573a18.013,18.013,0,0,0-8.485,6.041l-.387-6.613Zm-10.553-2.506-.106-1.817a17.717,17.717,0,0,0,4.5,1.817Zm.033,50.281,7.423,5.271c-2.8-1.222-5.818-2.546-8.39-3.688Zm2.4-1.627,4.633-1.536a7.371,7.371,0,0,0,.678,5.311ZM380,419.756c-2.918-3.622-6.544-8.131-7.048-11.8-.379-2.776-1.153-8.784-1.685-12.946l.244-.117c.463-.208,9.5-4.242,13.77-5.5a29.613,29.613,0,0,0,3.538-1.339V421.2c-2.594.441-5.169,1.076-6.639,1.459a11.208,11.208,0,0,0-.894-1.288C380.877,420.854,380.443,420.314,380,419.756Zm4.224-32.717c-3.8,1.124-10.783,4.151-13.3,5.26-.131-1.025-.212-1.667-.215-1.693l-.015-.12-7.493-18.8,24.229-2.539-.463,9.152a.7.7,0,0,0,.74.649h.033a.723.723,0,0,0,.773-.6l.817-16.229,15.215.215,6.325,4.385c-.821.879-1.638,1.773-2.459,2.67-1.175,1.288-2.393,2.619-3.666,3.954-.514.544-2.127,2.108-2.429,2.4C394.991,382.571,387.451,386.087,384.222,387.039Zm6.759,7.266,9.849.325c.164.007.328.011.489.011a14.823,14.823,0,0,0,2.958-.3l7.7-1.576h1.8a19.717,19.717,0,0,0,3.4,6.066c-2,2.156-1.233,4.432-.35,7.044a30.687,30.687,0,0,1,1.113,3.87c.956,4.724-.131,5.84-2.849,7.259-1.295.675-6.391,1.886-23.328,3.79l-.584.066-.19.022Zm25.049-1.539H436.1a76.369,76.369,0,0,1,5.767,7.277,15.7,15.7,0,0,1,1.321,4.425l.044.208L431.9,408.7c-.073-.04-.142-.084-.215-.12a5.557,5.557,0,0,1-2.947-3.159c-1.08-3.024-2.86-3.79-5.807-5.067-.54-.233-1.149-.5-1.813-.8C418.7,398.453,416.936,395.079,416.031,392.766Zm88.331,8.634c-.938-3.63-.445-7.617-.146-9.995a10.965,10.965,0,0,0,.161-2.087l-.026-.186c-.011-.088-.022-.168-.036-.244l2.962-1.328,2.014-2.152L515,384.58c.959,3.637,3.717,15.675,1.445,26.866q-.317,1.581-.642,2.98l-5.271.678a10.753,10.753,0,0,0-1.025-2.947,6.714,6.714,0,0,0-2.615-2.229C506.591,409.046,505.493,405.759,504.362,401.4Zm27.315-32.217a148.371,148.371,0,0,1-20.3-2.039l-1.5-3.925-.015-.036-.051-.109,20.647-4.6Zm-6.03-35.73,4.549,23.262-21.168,4.713L493.919,329.9c6.318-2.962,12.06-4.381,21.325-5.384,1.547-.168,3.881-.4,6.734-.678Zm33.771-15.613c-11.118,1.011-26.206,2.4-36.186,3.36l-4.771-12.5,37.364-5Zm-5.68-21.3.015.044,1.6,5.4-15.664,2.1-2.236-6.923,15.671-3.122Zm-4.432-17.969,0,.026,3.451,13.964-7.124,1.419-3.67-14.507,7.266-1.237ZM548.967,277l-7.31,1.244-3.188-12.6,7.806-1.087Zm-6.686-48.709a8.233,8.233,0,0,1,2.539.285,6.134,6.134,0,0,1,4.326,3.706l3.589,10.5.04.1,4.585,9.626-10.564,1.55-4.213-18.553c-.033-.525-.226-3.71-.4-7.212Zm-2.878.135c.193,3.8.4,7.212.409,7.266a.988.988,0,0,0,.022.15l4.206,18.538-19.111,1.587.992-26.932Zm-.474-9.7a18.206,18.206,0,0,1,.168,2.072c.029,1.47.1,3.4.193,5.373l-13.285.6.3-8.178Zm-12.537-2.382.4-10.969,9.338-.219.489,5.275a.886.886,0,0,0,.073.288,36.767,36.767,0,0,1,1.824,5.749Zm16.346-45.663.339,16.612-17.666.15-.529-7.233ZM522.2,181.647l.423,5.822-11.52.1Zm-14.923,8.2,35.847-.3.266,13H521.817a22.51,22.51,0,0,1-14.62-10.524Zm9.481,13.511L506.5,203.6l.46-7.336A25.19,25.19,0,0,0,516.757,203.362Zm-69.545-76.023h12.716a2.32,2.32,0,0,1,.967.2,1.578,1.578,0,0,1,1,1.386v5.464l-14.857-1Zm-13.1,7.438,72.748,4.917-.606,5.008-33.713-2.119-38.579-3.87Zm-.241,6.2,9.025.908-.285,10.33h-9.174Zm-.522,13.493h9.2l-.2,7.23-9.262-.452Zm-1.061,27.439L433,163.5l9.291.452-.015.387v.029l.8,19.822-10.786-.985C432.286,182.5,432.286,182.037,432.286,181.906Zm-.42,18.647c.288-2.878.379-10.509.4-15.08l10.885.992.171,4.206a3.536,3.536,0,0,1-1.226,2.754,5.61,5.61,0,0,0-1.926,3.98l-.19,6.635c-3.422-.015-5.924-.015-6.942.011a12.017,12.017,0,0,0-2.386.285A10.29,10.29,0,0,0,431.866,200.553Zm-.529-65.945-.153,3.892L389.5,136.112l-.095-3.834Zm-49.519-8.569a.391.391,0,0,1,.412.3l2.528,20.511.022.193,2.634,4.049,1.97,60.349-.511,17.943-.919,5.362v0l-.095.551-3.549,13.449-5.271-.839c-.153-.026-.31-.04-.467-.055l5.72-16.5.744-3.889v-15.12l-.7-28.106-2.4-41.552c-.467-5.4-1.1-12.8-1.419-16.656Zm-2.707,12.581c.164,1.882.3,3.422.361,4.191l.233,4.071c-3.279-2.254-7.97-5.512-11.987-8.412Zm.755,10.991,1.707,29.587-5.5.241a7.852,7.852,0,0,1-4.625-1.215l-12.388-8.12a10.131,10.131,0,0,1-1.59-1.28,8.284,8.284,0,0,1-2.294-4.016l-1.514-6.668a3.41,3.41,0,0,1,.492-2.63l10.641-16.473C370.6,143.28,378.105,148.408,379.867,149.612Zm-53.112-17.466a3.36,3.36,0,0,0,2.2-1.587h26.99a13.573,13.573,0,0,0,1.988,3.035,46.665,46.665,0,0,0,4.972,4.049L351.958,154.58a5.114,5.114,0,0,0-.733,3.925l1.514,6.668a10.141,10.141,0,0,0,2.812,4.921,12.334,12.334,0,0,0,1.952,1.569l12.388,8.12a10.635,10.635,0,0,0,5.811,1.667c.168,0,.332,0,.5-.011l5.483-.241.179,3.1.153,6.059H362.5a1.152,1.152,0,1,0,0,2.254h19.57l.489,19.76v14.949l-.452,2.4c-1.339.106-3.816.288-5.548.288a60.635,60.635,0,0,1-9.44-1.069,69.019,69.019,0,0,0-15.237-.719c-2.656.292-15.091,1.758-23.32,2.729-3.622.427-6.449.762-7.328.861a2.721,2.721,0,0,1-2.729-1.025l-.066-.1c-.175-.23-4.337-5.669-6.066-7.369a7.128,7.128,0,0,0-2.812-1.685,2.706,2.706,0,0,0-.941-1.186l.595-25.666a12.027,12.027,0,0,0-.5-3.7l-4.137-13.967-.044-.113a8.426,8.426,0,0,1,.554-6.843,1.087,1.087,0,0,0,.35-.489.858.858,0,0,0,.04-.182c1.547-2.4,7.215-9.123,15.667-18.585a16.694,16.694,0,0,0,4.188-8.747Zm-1.277-3.717a.9.9,0,1,1-1.083.875A1,1,0,0,1,325.479,128.43Zm-84.118,7.15,5.519-3.593,5.45,5.468A10.853,10.853,0,0,0,259,141.386a15.2,15.2,0,0,0,3,.288c3.8,0,8.094-1.31,12.8-3.918l13.854-7.2h33.873a3.15,3.15,0,0,0,1.466,1.328L322.579,141.9a14.7,14.7,0,0,1-3.677,7.686c-4.852,5.424-12.993,14.675-15.591,18.429l-1-.23a4.684,4.684,0,0,1-2.926-1.933l-3.309-5.18a1.562,1.562,0,0,0-1.875-.481,1.031,1.031,0,0,0-.595,1.517l3.309,5.18a7.425,7.425,0,0,0,4.636,3.068l.6.135a10.292,10.292,0,0,0-.255,7.606l4.122,13.916a10.269,10.269,0,0,1,.423,3.13l-.584,25.035a3.8,3.8,0,0,0-1.576.562c-5.548-3.6-26.953-17.495-30.667-19.388-2.656-1.357-12.074-5.694-18.746-8.747l5.329-10.02a13.637,13.637,0,0,0,1.437-8.963l-1.262-6.854a1.376,1.376,0,0,0-1.579-.948,1.188,1.188,0,0,0-1.171,1.28l1.266,6.854a11.821,11.821,0,0,1-1.244,7.741l-5.209,9.8c-2.243-1.025-3.889-1.773-4.392-2l-9.258-7.015-7.861-7.595-7.639-15.157-8.182-4.494Zm-27.979,20.727,7.89,4.334,7.5,14.887,8.16,7.883,8.86,6.719-8.751,10.32a1,1,0,0,0,.358,1.569,1.608,1.608,0,0,0,.788.2,1.506,1.506,0,0,0,1.145-.489l8.747-10.32c4.815,2.2,20.727,9.462,24.21,11.239,3.63,1.853,25.877,16.3,30.762,19.472a2.1,2.1,0,0,0-.033.339,2.305,2.305,0,0,0,.066.529l-5.019,1.277c-3.994,1.018-6.416,4.184-5.771,7.536.339,1.762.755,3.892,1.211,6.216.912,4.647.525,10.889.219,15.908-.1,1.576-.193,3.064-.23,4.315-.139,4.582,2.276,12.607,2.962,14.77l-22.3,5.45-10.334,2.378-.179.04c-.226-.89-1.273-2.962-4.655-8.922l-.073-.113c-.015-.018-1.357-1.857-.175-2.871.317-.277.875-.671,1.525-1.127,2.98-2.1,8.529-6,8.667-11.177.135-5.034-1.554-9.721-2.459-12.238-.161-.438-.3-.817-.383-1.094-.6-1.882-3.283-9.01-3.4-9.313a1.464,1.464,0,0,0-1.733-.748,1.107,1.107,0,0,0-.927,1.4c.029.077,2.78,7.387,3.367,9.222.1.31.241.7.4,1.16.865,2.4,2.473,6.872,2.349,11.56-.113,4.177-4.87,7.525-7.711,9.524-.733.518-1.313.923-1.729,1.28-2.068,1.784-1.131,4.286-.219,5.53,1.966,3.462,4.075,7.358,4.41,8.24a.867.867,0,0,0,.051.3v0c-4.9,1.127-10.838,2.5-17.243,3.976l-2.24-5.432a1.482,1.482,0,0,0-1.758-.711,1.094,1.094,0,0,0-.879,1.426l2.2,5.337c-1.911.441-3.856.89-5.818,1.346l-3.538-11.009-1.645-10.269-5.5-16.809,3.283-.587a.887.887,0,0,0,.821-1.043,1.1,1.1,0,0,0-1.288-.668L206.7,250.74l-1.89-15.7-.007-.091-3.881-10.965-8.992-13.128-14.715-13.61,27.606-28.011s1.959-6.767,1.89-6.938l3.808-3.44Zm-51.04,53.429c3.75,3.17,7.507,6.358,8.912,7.566l.274.252-2.426,1.532-3.024-4.038a1.215,1.215,0,0,0-.186-.2l-4.425-3.889Zm-1.313-4.727.43-.606,9.973-10.309,1.2,1.536-10.228,10.542Zm9.685,8.2a1.052,1.052,0,0,0-.2-.182c-.062-.047-.117-.095-.179-.139-.339-.288-.7-.587-1.062-.9-3.327-3.294-.547-6.15-.19-6.489l6.562-6.661,13.8,12.756-11.607,9.134a34.126,34.126,0,0,0-4.337-5.14C172.921,215.086,171.936,214.244,170.714,213.208Zm2.335-20.785,1.43-1.481c.208-.212,20.552-21.037,21.788-22.244.27-.215,2.083-1.521,3.743-2.7l2.127-1.127-2.211,3.32-20.792,20.752-4.877,5.019Zm17.9,21.128,7.675,11.21,3.465,9.794-12.607,3.272-6.059-8.777c-.215-.347-2.017-3.228-4.158-6.307Zm2.977,24.553,8.485-2.382,2.7,22.4-.657,1.386-14.084-20.4Zm5.6-86.168a8.166,8.166,0,0,0,5.49,2.882l5.888.7-2.291,2.065-3.881,3.506-6.146,3.268-.139.084c-3.775,2.685-3.976,2.882-4.042,2.944-.1.095-.369.361-.77.766a6.245,6.245,0,0,0-2.761-2.721,6.938,6.938,0,0,0-3.757-.6l-.886-3.706a10.107,10.107,0,0,0,2.119-.8l2.305-1.2.131-.077a36.956,36.956,0,0,0,4.844-3.816c.711-.8,2.4-2.8,3.378-3.965Zm-48.406,17.32a34.932,34.932,0,0,1,4.027-4.454c1.992-1.988,3.87-3.867,4.494-5.278.857-1.952,12.6-13.055,16.9-15.266,3.2-1.641,4.41-2.8,5.056-3.819l2.149-4.935c4.786,1.116,6.088,3.991,6.154,4.137l.044.117,7.642,9.721-.449.463c-.934,1.109-2.791,3.309-3.52,4.137a35.126,35.126,0,0,1-4.363,3.4l-2.24,1.156a7.827,7.827,0,0,1-3.991.824l-3.3-.186a7.085,7.085,0,0,1-2.834-.762l-2.039-1.051a1.479,1.479,0,0,0-1.572.124.9.9,0,0,0,.215,1.547l2.065,1.069a9.891,9.891,0,0,0,4,1.069l3.3.19c.2.011.412.018.62.018.106,0,.212-.007.317-.011l.941,3.936a.879.879,0,0,0-.354,1.175,1.407,1.407,0,0,0,1.616.522,5.032,5.032,0,0,1,3.6.047,4.651,4.651,0,0,1,2.211,2.864C186.13,175.785,173.22,189,172.538,189.7l-.9.927-.8-1.014c-.12-.157-3.079-3.794-11.866-6.971-8.423-3.042-9.291-3.885-11.191-5.734-.89-.865-1.955-1.89-2.882-2.776C146.653,173.228,149.7,171.422,151.118,169.256Zm-13.238,12.8-2.455-2.8,7.369-4.042c.97.927,2.134,2.043,3.093,2.977,2.229,2.167,3.476,3.174,12.081,6.281,8.036,2.9,10.772,6.194,10.79,6.216l1.266,1.612-6.041,6.238H153.719Zm17.863,18.487h6.3l-2.645,2.736-.157.219C157.7,202.191,156.433,201.13,155.744,200.546Zm4.819,7.686-.85,1.185-1.109-.978.824-1.167Zm-.719,4.994,3.673,3.225.7.934h-7.35Zm2.568,23.379h0l-19.6.912,3.615-5.563,9-12.567h10.29l11.7,15.623.573.868Zm17.714-2.8-.04-.062-9.692-12.935,2.6-1.638A122.165,122.165,0,0,1,180.68,230.2l14.529,21.048-1.718,2.955C189.88,248.671,180.125,233.8,180.125,233.8ZM194.943,256.4l1.747-3.006,22.335,32.36,3.414,4.647c-.562.131-1.12.263-1.674.39Zm-4.957,30.82,1.412-7.489a28.877,28.877,0,0,1,8.539-11.863l8.324,11.089-3.619,1.474a1.154,1.154,0,0,0-.686,1.682,1.609,1.609,0,0,0,1.379.689,1.918,1.918,0,0,0,.7-.131l3.837-1.569,7.814,10.4c-4.177.97-8.248,1.919-12.063,2.809C201.458,292.306,195.048,289.289,189.985,287.218Zm-34.566,25.348a54.46,54.46,0,0,1,10.662-5.76,130.266,130.266,0,0,1,17.316-5.147c3.531-.806,11.359-2.725,21.066-4.994.219.109.434.212.638.314-11.666,2.71-23.649,5.57-29.416,7.179-13.4,3.735-19.7,8.182-26.125,13.562l-.357-.259A75.3,75.3,0,0,1,155.419,312.566Zm17.192,69.5-37.346-19.811,5.519-13.628a3.9,3.9,0,0,1,1.729-1.882l4.432-2.5a4.009,4.009,0,0,0,2.061-2.674l.062-.507a3.584,3.584,0,0,0-1.175-2.7l-2.6-2.488-2.418-2.316-4.231-4.042c5.2-3.6,10.042-7.073,12.559-9.207,5.836-4.939,11.3-9.065,22.251-12.552l5.2,10.148,1.014,1.981,10.849,21.179.2.39,2.623,5.118c.12.248,3.119,6.143,8.2,8.561a17.721,17.721,0,0,1,3.659,2.539c.175.153.343.3.514.456l-1.955,1.31a9.1,9.1,0,0,0-4.344,7.474v12.257L188.267,391.88Zm5.9,56.592,1.525-34.373,8.332-9.5,5.727,3.589,1.156.708v25.2c-4.72,6.584-11.02,15.4-14.252,19.931Zm2.794,9.634c.175-.252,17.86-25.013,21.624-30.207a10.374,10.374,0,0,1,2.349-2.287c.095,1.317.175,2.612.241,3.71l-3.8,9.141c-.062.142-1.295,3.2.992,5.26-.186.259-.376.529-.584.813a69.468,69.468,0,0,1-7.613,8.824c-.16.095-.274.172-.347.219l-13.646,7.766-2.236,1.021ZM137.14,482.381l-6.562-6.4,8.682-6,4.935,7.569,4.1.368,1.062,9.521C141.185,486.937,137.308,482.574,137.14,482.381Zm11.45-6.457-2.823-.255-4.483-6.876,12.034-5.669,16.368-4.005,5.88-2.721.317-.445,5.96-2.725,13.8-7.854.12-.077c.1-.073,2.553-1.8,6.73-.9,3.867.832,4.319,3.476,4.49,6.588.069,1.222.285,6.132.5,11.268H191.981l-25.389,9.656Zm34.913-7.9-.339-.2,9.368-3.564h15.043c.062,1.455.124,2.893.182,4.235Zm4.479,2.09L200.9,482.177a20.394,20.394,0,0,1-2.214,3.261c-.554.6-2.936.883-4.439.85h-.106l-.1.011c-.029,0-2.863.3-11.655-.379-.522-.036-1.054-.069-1.594-.088l-4.782-6.033a5.091,5.091,0,0,0-3.123-1.776,2.577,2.577,0,0,1-1.685-1.029l-2.466-3.688,11.874-4.516,2.068,1.218Zm-37.248,7.412,15.671-3.495,2.623,3.918a5.049,5.049,0,0,0,3.312,2.032,2.607,2.607,0,0,1,1.587.9l3.892,4.91c-4.166.044-8.7.449-13.139.85-4.341.39-8.817.788-12.837.835ZM209.88,500.04c-2.276.255-6.132.664-8.627.773a26.909,26.909,0,0,1-7.835-1.193c-1.131-.281-2.294-.569-3.619-.861a20.191,20.191,0,0,0-8.9.142,23.933,23.933,0,0,1-2.67.412c-.492.04-.985.088-1.47.131-2.637.252-4.917.467-7.566-.54a16.132,16.132,0,0,0-7.927-.748c-.66.058-1.339.117-2.05.15-2.138.106-4.99-1.109-6.365-1.82l-.784-7.011c4.089-.058,8.55-.456,12.884-.846,6-.544,12.194-1.1,17.192-.715,8.31.642,11.494.434,12.129.379.992.015,4.9-.047,6.384-1.652a22.075,22.075,0,0,0,2.462-3.593l4.943.277v8.835Zm-1.817-24.229v5.508l-5.118-.285-11.622-10.86,16.517.317C207.965,473.444,208.056,475.589,208.064,475.811Zm-.317-64.066c-.1-1.1-.2-2.079-.31-2.794a7.323,7.323,0,0,1,.08-2.046l3.772,3.611A31.592,31.592,0,0,0,207.746,411.746Zm4.2-6.311a6.738,6.738,0,0,0-.069,2.148l-3.309-3.163-.449-.277a65.013,65.013,0,0,1,2.455-7.223c.026-.069,2.28-5.57,4.279-11.877C214.079,392.073,212.974,399.843,211.941,405.435Zm6.519,37.492c.051,0,5.278-.113,6.621,2.459,1.3,2.5,1.262,8.572,1.138,10.7l0,.058.007.058c.12,1.455.19,5.625-.948,7.423-.9,1.43-6.194,5.818-10.546,9.24l.16-29.941Zm-7.022-86.613,4.22-3.816a19.458,19.458,0,0,1,.223,3.257c-.022,1.408-.055,3.217-.095,5.249A62.53,62.53,0,0,0,211.438,356.314Zm10.32,53.564a11.205,11.205,0,0,0-2.367.066,6.041,6.041,0,0,1-3.637-1.058A3.125,3.125,0,0,1,215,405.8c1.058-5.753,2.2-13.792,2.973-20.982.547-5.056.857-20.362,1-29.033a21.926,21.926,0,0,0-.554-5.205c10.363-.5,22.78-1.178,23.6-1.222l13.832-.967.686,2.065,4.684,20.687,4.593,5.709.806,6.814c.022.726.368,7.31,4.589,11.826,1.7,1.817,7.153,7.46,11.819,10.163a44.333,44.333,0,0,0-3.786,6.7l-10.1-2.229Zm62.691,6.219a20.6,20.6,0,0,1,.4,4.049l.015,5.891-6.362,7,.627-11.571c.131-.511.941-3.651,1.536-6.2Zm-7.54,42.938.066-.839a2.235,2.235,0,0,0,.609.46l.2.1A8.3,8.3,0,0,0,276.908,459.035Zm8.054,1.587c-.164-.1-4.071-2.367-6.241-3.458-.773-.387-1.266-3.856-1.12-7.558l.726-13.431,6.54-7.193.04,16.911h-.018l.018.876.321,14.033C285.083,460.7,284.988,460.637,284.963,460.622Zm8.394,3.261c-2.922-1.4-4.749-7.635-5.22-11.272l-.157-6.763-.452-26.476a15.618,15.618,0,0,0-.233-2.663l10.05.12c.051,5.176.168,16.641.168,16.641h0V446.56l-.036,15.791-1.634,2.681C294.826,464.576,293.976,464.179,293.356,463.883Zm-6.993,54.144,6.03-26.107,2.316-10.2,2.367-13.059.1-.164c6.657,2.962,16.152,7.062,17.29,7.551l2.813,1.62c.27.186,2.809,1.962,2.287,3.867-.781,2.834-2.353,12.224-2.418,12.625l-.015.077-.233,20.723L316.574,530l-14.194-.226.08-2.583a1.129,1.129,0,0,0-1.207-1.025,1.149,1.149,0,0,0-1.266.978l-.077,2.59-16.16-.255ZM316.531,532l-.168,7.522v11.027l-5.253-.033-9.342-.058.554-18.684Zm-35.34,8.689,2.1-9.218,16.557.266-.558,18.706-20.19-.124Zm-4.483,20.69,1.963-9.061,19.523.124-6.683,8.043Zm16.955.1,7.492-9.021,8.718.051V559l-6.7,7.551Zm21.339,3.8a4.132,4.132,0,0,0,.627.051,3.174,3.174,0,0,0,3.046-1.842.711.711,0,0,1,.686-.416h3.5l-2.739,7.777-14.613-3.495,2.787-3.148Zm3.6,16.791-9.076,1.207a5.432,5.432,0,0,1-2-.106l-7.055-1.711,1.27-4.005,17.947,4.206A2.54,2.54,0,0,1,318.606,582.075Zm2.152-2.24-18.4-4.315,2.01-6.347,16.262,3.889v0l2.4.573Zm24.666-16.962a16.519,16.519,0,0,1,.2,5.278,24.68,24.68,0,0,0-.182,4.7l-20.114-.755-2.831-.678,3.119-8.86,9.51-9.014a.878.878,0,0,0-.139-1.412,1.439,1.439,0,0,0-1.74.109l-9.313,8.831h-4.571a3.158,3.158,0,0,0-3.053,1.842.739.739,0,0,1-.824.4l-5.6-.9,2.462-2.776v-7.117l5.552.033h.135l15.335-2.579a6.069,6.069,0,0,1,2.637.146l16.67,4.79-1.226,1.616-2.382.875C346.468,558.365,344.972,560.612,345.425,562.873Zm5.636,15.288c-2.685-.8-3.684-4.1-2.98-9.809a18.292,18.292,0,0,0-.212-5.8,3.032,3.032,0,0,1,2.221-3.32l3.071-1.131,1.9-2.5,6.409,1.838-.252,9.926,1.087,11.162C359.272,578.737,353.669,578.938,351.06,578.161Zm10.677-22.769L355.5,553.6v-1.853L344.757,542.5H339.6a1.524,1.524,0,0,1-1.612-1.185l-.62-5.016-.624-15.208h2.539a2.908,2.908,0,0,0,3.144-2.466l.456-11.089a1.312,1.312,0,0,1,.682-1.051,3.412,3.412,0,0,0,1.061-5.322l-.839-.967a8.6,8.6,0,0,0-8.051-2.408c-5.034,1.032-6.074,1.2-6.289,1.226-.817-.047-2.958-.058-9.276-.015l.051-4.592c.153-.919,1.645-9.736,2.356-12.337a3.979,3.979,0,0,0,.1-1.671l.627.4,34.045,3.575,3.32,3.21,10.243,4.815,4.852,17.236a40.625,40.625,0,0,0-9.838,2.8c-3.272,1.649-10.714,6.285-13,7.719l-3.721-3.265,8.594-6.055,4.8-1.032a.812.812,0,0,0,.722-.781.922.922,0,0,0-1.164-.678l-5.045,1.083a1.039,1.039,0,0,0-.372.16l-9.477,6.675-.022.022-.066.055-.055.055a.307.307,0,0,0-.047.066l-.04.058a.365.365,0,0,0-.036.077l-.026.066a.479.479,0,0,0-.015.077l-.011.051,0,.022,0,.022V519.5l-4.921,5.1a.68.68,0,0,0,.12,1.083,1.078,1.078,0,0,0,.576.164,1.025,1.025,0,0,0,.733-.288l5.147-5.344a.665.665,0,0,0,.2-.463v-1l2.78,2.44-5.271,5.034a2.452,2.452,0,0,0,.478,3.987,3.445,3.445,0,0,0,.992.441,4.349,4.349,0,0,0,1.153.157,3.881,3.881,0,0,0,2.375-.77l12.348-9.579a.654.654,0,0,0,.029-1.061,1.089,1.089,0,0,0-1.31-.026l-12.348,9.579a1.774,1.774,0,0,1-1.233.35,1.671,1.671,0,0,1-1.142-.522,1.093,1.093,0,0,1,.073-1.587l5.738-5.479c.916-.576,9.889-6.216,13.438-8a38.916,38.916,0,0,1,9.276-2.6l2.083,7.4-7.007.967a1.282,1.282,0,0,0-.872.5l-2.068,2.995-13.763,10.407a.873.873,0,0,0-.124,1.357l4.326,4.425a1.333,1.333,0,0,0,.832.372c.044,0,.091,0,.135,0a1.4,1.4,0,0,0,.781-.226l11.742-7.763a.9.9,0,0,0,.419-1.014l-2.05-6.792,1.638-2.367,6.562-.908,3.192,11.337-2.918.9a16.488,16.488,0,0,0-6.785,3.951l-6.092,6.03a10.27,10.27,0,0,0-2.9,5.165ZM370.08,530.4l-10.166,6.719-2.838-2.9L368.6,525.5Zm22.5,5.056,20.4-4.472,10.272-7.2,2.736,3.192-14.416,5.687a.808.808,0,0,0-.5,1.171,1.122,1.122,0,0,0,.974.492,1.25,1.25,0,0,0,.471-.088l14.715-5.807.069.08a1.123,1.123,0,0,0,.23.2l15.146,10.119-22.54,14.121-.223.139-1.488,2.82-11.06,4.049-16.218-5.822-.463-1.649a46.036,46.036,0,0,1,7.595.1l.168.025a41.783,41.783,0,0,0,6.015.6,10.773,10.773,0,0,0,4.2-.711c2.546-1.087,11.4-5.435,11.771-5.621a.788.788,0,0,0,.365-1.2,1.24,1.24,0,0,0-1.488-.292c-.091.044-9.167,4.505-11.655,5.563-2.17.927-5.7.4-8.817-.062l-.168-.022a49.152,49.152,0,0,0-8.474-.106l-3.841-13.646Zm-4.421,18.191L364.2,555.6l.934-4.469,11.377-.748a1.09,1.09,0,0,0,1.131-1.08,1.185,1.185,0,0,0-1.331-.916l-10.75.7.186-.912a8.415,8.415,0,0,1,2.378-4.231l6.092-6.03a14,14,0,0,1,5.749-3.349l2.6-.8Zm-8.766,14.285c-4.009.726-6.7,3.878-6.121,7.172l.113.646a1.744,1.744,0,0,1-.54,1.561,2.676,2.676,0,0,1-1.78.741l-6.3.31-1.076-11.06.237-9.663,24.787-2.021,2.849,10.115Zm12.443-11.359,29.77,10.684-3.965,8.47-12.428-4.264-8.711,1.685ZM412.6,582.954,400,585.562l-3.013-10.706,8.04-1.554,11.673,4.005Zm26.06-2.076c-.558.751-1.222,1.641-1.871,2.5L420.2,578.2l-.781-1.346,4.162-8.886,14.737,5.289.868.27Zm43.066,2.721-15.583-4.21,16.039-14.369.857-.2c.558,1.532.945,2.586,1,2.747l.018.044,9.583,19.961Zm14.124-21.7c.142-.029,1.39-.274,1.8.595a6.647,6.647,0,0,1,.409,1.784c.193,1.4.412,2.995,2.16,3.644a10.79,10.79,0,0,0,1.977.529,14.347,14.347,0,0,1,3.837,4.443l-5.669,6.9a11.575,11.575,0,0,0-7.726-.522l-5.95-12.388c-.08-.222-.449-1.233-.974-2.67Zm-2.426,19a9,9,0,0,1,5.329.208,13.426,13.426,0,0,1-4.454,1.62Zm8.919-.354,4.458-5.428c.4,1.408,1.021,3.56,1.7,5.928A10.869,10.869,0,0,1,502.345,580.55Zm10.177-14.945c-1.605.215-5.421.744-6.807,1.05a7.885,7.885,0,0,1-4.592-.328c-.635-.234-.77-1.211-.912-2.247a7.515,7.515,0,0,0-.54-2.214,3.224,3.224,0,0,0-2.688-1.729,9.062,9.062,0,0,1,2.51-1.984l6.183-3.316a47.016,47.016,0,0,1,4.986,5.9A29.244,29.244,0,0,1,512.522,565.605Zm-14.978-14.919.04-.018c.022-.011,2.3-1.036,3.608-.1a31.6,31.6,0,0,1,3.141,2.885l-6.044,3.239c-.6.328-3.279,1.882-3.739,3.684l-9.444,2.156c-.62-1.7-1.35-3.7-2.061-5.654Zm-33.3-28.945,7.153.58a5.418,5.418,0,0,1,2.484.814l1.167.744a8.657,8.657,0,0,1,2.065,1.78,6.763,6.763,0,0,1,1.572,3.589l.463,4.184a6.268,6.268,0,0,1-.036,1.653l-.824,5.187a5.669,5.669,0,0,1-.124.613c-.474,1.8-1.485,6.223-.719,8.47.547,1.609,3.21,8.926,4.983,13.789l-1.43.328-17.1,15.313-7.252-1.963-15.288-4.76c-.073-.806-.08-2.718,1.372-3.527a14.378,14.378,0,0,1,1.813-.832,5.108,5.108,0,0,0,3.29-2.885,11.577,11.577,0,0,1,3.469-3.776.769.769,0,0,0,.146-1.233,1.259,1.259,0,0,0-1.521-.12,13.327,13.327,0,0,0-4.1,4.487,3.185,3.185,0,0,1-2.232,1.952,17,17,0,0,0-2.086.963,4.781,4.781,0,0,0-2.335,4.282l-8.937-3.206,12.114-12.392a.77.77,0,0,0-.175-1.229,1.259,1.259,0,0,0-1.521.142l-12.461,12.745-4.3-1.547a1.188,1.188,0,0,0-.387-.208,1.356,1.356,0,0,0-.339-.051l-13.139-4.717,10.061-3.684,1.6-3.028,22.707-14.226,6.34,4.235a5.345,5.345,0,0,0,2.969.865,5.439,5.439,0,0,0,2.721-.708l1.868-1.091a1,1,0,0,0,.493-.613l.616-2.51a.852.852,0,0,0-.182-.755l-4.326-5.2a1.293,1.293,0,0,1-.241-1.145,1.363,1.363,0,0,1,.817-.766l4.611-1.813a5.483,5.483,0,0,0,3.641-4.25ZM452.52,534.88a3.381,3.381,0,0,0,.274.387l4.078,4.9-.42,1.707-1.477.861a2.613,2.613,0,0,1-2.674-.073l-5.909-3.947Zm-8.284-17.28a10.73,10.73,0,0,0,6.847,3.075l10.7.865-.529,4.494a3.385,3.385,0,0,1-2.258,2.634l-4.534,1.784a4.04,4.04,0,0,0-1.747,1.244,3.007,3.007,0,0,0-.554,1.193l-7.478,4.684-15.445-10.32-3.79-4.421,4.523-1.594a3.526,3.526,0,0,0,2.207-2.01,2.69,2.69,0,0,0-.474-2.663L421.926,504.4a1.278,1.278,0,0,1,.419-1.941l5.289-3.239c6.333,7.051,14.471,16.138,14.595,16.276Zm-17.874-19.8-5.322,3.261a2.827,2.827,0,0,0-.927,4.293l9.776,12.165a1.215,1.215,0,0,1,.215,1.2,1.609,1.609,0,0,1-1,.908l-4.921,1.733-10.1-11.775a1.432,1.432,0,0,0-1.773-.223.91.91,0,0,0-.215,1.412l9.907,11.556-9.1,6.376-2.229-4.676a1.169,1.169,0,0,0-1.4-.5.836.836,0,0,0-.62,1.135l2.349,4.932-17.5,3.837,1.375-10.327a.941.941,0,0,0-.956-.967,1.05,1.05,0,0,0-1.193.777l-1.47,11.042-5.4,1.437L374.9,496.447a4.733,4.733,0,0,1,.9,1.321c1.029,2.338,4.943,11.268,4.943,11.268l.08.186.175.139a4.363,4.363,0,0,0,2.645.894,4.24,4.24,0,0,0,1.59-.31,6.746,6.746,0,0,0,1.747-1.167,5.7,5.7,0,0,1,4.407-1.663c3.98.168,5.041-1.331,5.676-2.229a3.315,3.315,0,0,1,.281-.361l.128-.139a3.454,3.454,0,0,1,2.776-1.361c2.229-.088,10.046-1.463,10.378-1.525a.89.89,0,0,0,.824-1.04,1.1,1.1,0,0,0-1.288-.671c-2.211.39-8.317,1.419-10.017,1.485a5.71,5.71,0,0,0-4.388,2.043l-.12.131a4.882,4.882,0,0,0-.449.562c-.511.719-1.04,1.463-3.691,1.353a7.981,7.981,0,0,0-6.066,2.192,5.2,5.2,0,0,1-1.167.821,1.8,1.8,0,0,1-1.58-.15c-.321-.733-1.382-3.159-2.455-5.6a5.059,5.059,0,0,0,2.167-1.353,3.491,3.491,0,0,0,.9-3.155l-.182-.788,1.846-2.28,2.674-1.926.077-.055.062-.066c.773-.81,2.046-1.631,2.59-1.521.314.066.66.15,1.025.237a17.657,17.657,0,0,0,6.041.62c1.04-.087,3.936-.518,7.317-1.051v.839a2.322,2.322,0,0,0,.992,1.838,3.531,3.531,0,0,0,2.086.657c.084,0,.168,0,.255-.007l4.056-.274a.956.956,0,0,0,.989-.945,1.038,1.038,0,0,0-1.167-.8l-4.056.27a1.038,1.038,0,0,1-.7-.193.672.672,0,0,1-.3-.547v-1.186c4.735-.759,9.82-1.609,11.914-1.959a11.518,11.518,0,0,0,1.685,2.32C421.222,492.081,423.516,494.634,426.362,497.8Zm-8.806-17.907a20.73,20.73,0,0,0,.558,7.412c-2.367.4-7.748,1.3-12.5,2.054h0c-3.852.617-7.3,1.142-8.4,1.233a15.063,15.063,0,0,1-5.2-.558c-.39-.091-.759-.182-1.124-.255-2.123-.431-4.217,1.528-4.76,2.083l-2.816,2.028-2.48,3.064.343,1.481a1.964,1.964,0,0,1-.511,1.795,2.768,2.768,0,0,1-1.153.744c-.7-1.6-1.335-3.042-1.667-3.8a8.754,8.754,0,0,0-3.786-3.746l-.675-2.4.168-3.214,5.8.223c.117.007.233.007.35.007a8.495,8.495,0,0,0,4.417-1.2l20.621-12.651.109-.153a4.094,4.094,0,0,0-.573-5.421c-4.914-4.822-5.169-4.983-5.76-4.99-.755-.091-7.507-1.175-11.968-1.9l-7.212-1.609h-4.352l.507-9.794c.956-.956,3.319-2.356,8.368-.875L416.1,468a10.75,10.75,0,0,1,2.094,1.569l2.575,2.484A12.073,12.073,0,0,0,417.556,479.893ZM456.2,452.542c-5.712,2.6-19.731,15.97-22.937,24.028a28.356,28.356,0,0,0-1.448,14.183l-2.316-1.846-.131-.1-.157-.073c-4.6-2.108-3.943-8.284-3.936-8.342l0-5.472a4.965,4.965,0,0,0-1.6-3.567l-3.349-3.228a13.291,13.291,0,0,0-2.615-1.955l-31.973-18.4.062-.124c-.215-.073-.427-.139-.635-.2l-2.929-1.685-2.251-2.283a5.593,5.593,0,0,1-1.685-3.6,19.339,19.339,0,0,1,.193-4.8,10.647,10.647,0,0,1,2.159-3.991,12.989,12.989,0,0,0,1.047-1.521c.08-.153.2-.336.328-.529.168-.252.357-.533.533-.854l36.569-3.925a21.094,21.094,0,0,1,11.8,2.112l45.222,22.966C469.037,449.077,460.574,450.547,456.2,452.542Zm54.162,5.242a12.8,12.8,0,0,1-9.813-.339c-4.045-1.9-8.981-4.1-13.234-5.687l-.1-.055L432.76,424.049a25.176,25.176,0,0,0-14.077-2.521l-35.511,3.816a5.791,5.791,0,0,0-.153-.8,67.731,67.731,0,0,1,8.5-1.7l.58-.066c9.028-1.018,21.372-2.546,24.327-4.093,3.568-1.864,5.07-3.724,3.947-9.265a32,32,0,0,0-1.164-4.078c-.821-2.429-1.2-3.75-.343-4.957a7.08,7.08,0,0,0,1.2.7c.679.31,1.3.576,1.849.817,2.853,1.229,3.921,1.693,4.746,4.005a7.4,7.4,0,0,0,3.775,4.1,5.175,5.175,0,0,1,1.233.846l.226.255a9.035,9.035,0,0,0,5.483,3.425,1.039,1.039,0,0,0,.212.018.984.984,0,0,0,1.08-.952,1.009,1.009,0,0,0-.908-.792,7.053,7.053,0,0,1-4.118-2.732l-.055-.062,10.035-3.56c.485,2.01,1.131,3.724,2.506,4.516,1.623.93,3.721.938,5.753.945a12.849,12.849,0,0,1,4.013.39,4.546,4.546,0,0,1,2.572,2.364,3.019,3.019,0,0,1-.113,2.871c-.27.434-.606.864-.959,1.324-1.474,1.9-3.309,4.261-.762,7.85,2.626,3.706,8.97,11.64,9.652,12.486.3.576,1.638,2.477,6.274,2.645,1.656.058,3.068,0,4.315-.058,2.16-.095,3.578-.161,4.538.456a11.858,11.858,0,0,0,6.343,2.17,7.122,7.122,0,0,0,3.969-1.178c3.7-2.437,3.1-8.273,3.075-8.521a1.046,1.046,0,0,0-1.175-.8.953.953,0,0,0-.981.952c.157,1.426.055,5.464-2.28,7-2,1.317-4.49.985-7.613-1.01-1.6-1.025-3.538-.937-5.993-.828-1.2.051-2.553.113-4.1.058-3.542-.128-4.286-1.4-4.366-1.55l-.022-.095-.106-.128c-.073-.088-6.971-8.689-9.685-12.526.755-.051,1.725-.117,2.805-.193,2.44-.175,5.424-.4,7.6-.558a5.548,5.548,0,0,0,4.859-3.155l5.147-12.811a3.381,3.381,0,0,1,2.211-1.868c.489,4.709.937,9.583,1.269,13.559a1.018,1.018,0,0,0,1.08.817l.073,0a.962.962,0,0,0,1.007-.934c-.117-1.371-.361-4.257-.693-7.762l22.642-1.674a4.832,4.832,0,0,1,1.634,1.477,9.9,9.9,0,0,1,.9,2.612l-5.9.759a.633.633,0,1,0,.08,1.248c.04,0,.08,0,.124-.007l12.18-1.561c-.529,2.225-1.047,4.115-1.5,5.756-1.605,5.884-2.586,9.484-1.113,16,0,.208,5.162,13.69,5.162,13.69l1.434,3.126Zm11.173-5.468-.854-1.864s-4.972-12.993-4.99-13.07c-1.47-6.256-.584-9.513,1.025-15.4.109-.4.226-.824.343-1.258a105.738,105.738,0,0,0,2.714,10.991l6.333,16.094Z" transform="translate(-340.535 -204.375)" fill="#56afaa"/>
      </g>
      <path id="Tracé_6667" data-name="Tracé 6667" d="M366.4,336c-3.759,0-9.4,1.709-9.4,8.547,0,3.419,7.521,15.384,9.4,18.8,1.88-3.419,9.4-15.384,9.4-18.8C375.8,337.709,370.164,336,366.4,336Zm0,11.538a2.991,2.991,0,1,1,2.991-2.991A2.99,2.99,0,0,1,366.4,347.538Z" transform="translate(-130.04 -160.614)" fill="#155a76"/>
    </g>
  </g>
</svg>
