<svg xmlns="http://www.w3.org/2000/svg" width="110.516" height="111.484" viewBox="0 0 110.516 111.484">
  <g id="symbole-mg" transform="translate(-422.116 -425.339)">
    <path id="Tracé_13325" data-name="Tracé 13325" d="M528.033,443.372h-3.492v-3.9c0-6.917-4.936-13.106-11.792-14.015a13.659,13.659,0,0,0-15.457,13.5v16.368a15.289,15.289,0,0,0,15.289,15.289h15.963a13.659,13.659,0,0,0,13.5-15.456C541.14,448.308,534.95,443.372,528.033,443.372Z" transform="translate(-9.538 0)" fill="#56afaa"/>
    <path id="Tracé_13326" data-name="Tracé 13326" d="M436.252,443.372h3.492v-3.9c0-6.917,4.936-13.106,11.793-14.015a13.659,13.659,0,0,1,15.456,13.5v16.368A15.289,15.289,0,0,1,451.7,470.622H435.74a13.658,13.658,0,0,1-13.5-15.456C423.145,448.308,429.335,443.372,436.252,443.372Z" transform="translate(0 0)" fill="#f7931e"/>
    <path id="Tracé_13327" data-name="Tracé 13327" d="M528.033,528.409h-3.492v3.9c0,6.917-4.936,13.107-11.792,14.015a13.659,13.659,0,0,1-15.457-13.5V516.45a15.29,15.29,0,0,1,15.289-15.29h15.963a13.66,13.66,0,0,1,13.5,15.457C541.14,523.474,534.95,528.409,528.033,528.409Z" transform="translate(-9.538 -9.62)" fill="#56afaa"/>
    <path id="Tracé_13328" data-name="Tracé 13328" d="M436.252,528.409h3.492v3.9c0,6.917,4.936,13.107,11.793,14.015a13.658,13.658,0,0,0,15.456-13.5V516.45A15.29,15.29,0,0,0,451.7,501.16H435.74a13.659,13.659,0,0,0-13.5,15.457C423.145,523.474,429.335,528.409,436.252,528.409Z" transform="translate(0 -9.62)" fill="#56afaa"/>
  </g>
</svg>
