<?xml version="1.0" encoding="utf-8"?>
<!-- Generator: Adobe Illustrator 16.0.0, SVG Export Plug-In . SVG Version: 6.00 Build 0)  -->
<!DOCTYPE svg PUBLIC "-//W3C//DTD SVG 1.1//EN" "http://www.w3.org/Graphics/SVG/1.1/DTD/svg11.dtd">
<svg version="1.1" id="Layer_1" xmlns="http://www.w3.org/2000/svg" xmlns:xlink="http://www.w3.org/1999/xlink" x="0px" y="0px"
	 width="22px" height="24px" viewBox="0 0 22 24" enable-background="new 0 0 22 24" xml:space="preserve">
<g>
	<path fill="#FFFFFF" d="M5.453,7.555h15.602c0.314,0,0.573,0.144,0.772,0.43c0.173,0.23,0.216,0.516,0.13,0.86l-2.579,8.038
		c-0.201,0.659-0.631,0.988-1.29,0.988H8.2c-0.659,0-1.089-0.3-1.29-0.901L3.127,6.868H0.935c-0.258,0-0.48-0.094-0.667-0.28
		c-0.187-0.186-0.28-0.423-0.28-0.709c0-0.258,0.093-0.48,0.28-0.667c0.186-0.186,0.409-0.279,0.667-0.279h2.837
		c0.43,0,0.746,0.215,0.946,0.646l0.594,1.593L5.453,7.555z M8.716,19.119c-0.43,0-0.803,0.158-1.118,0.473
		c-0.315,0.258-0.473,0.617-0.473,1.075c0,0.43,0.157,0.802,0.473,1.118c0.315,0.314,0.688,0.473,1.118,0.473
		c0.401,0,0.759-0.158,1.075-0.473c0.315-0.316,0.472-0.688,0.472-1.118c0-0.458-0.157-0.817-0.472-1.075
		C9.476,19.277,9.117,19.119,8.716,19.119z M17.271,19.119c-0.458,0-0.817,0.158-1.074,0.473c-0.316,0.258-0.473,0.617-0.473,1.075
		c0,0.43,0.156,0.802,0.473,1.118c0.257,0.314,0.616,0.473,1.074,0.473c0.43,0,0.803-0.158,1.118-0.473
		c0.314-0.316,0.472-0.688,0.472-1.118c0-0.458-0.157-0.817-0.472-1.075C18.074,19.277,17.701,19.119,17.271,19.119z"/>
</g>
</svg>
