<?xml version="1.0" encoding="utf-8"?>
<!-- Generator: Adobe Illustrator 16.0.0, SVG Export Plug-In . SVG Version: 6.00 Build 0)  -->
<!DOCTYPE svg PUBLIC "-//W3C//DTD SVG 1.1//EN" "http://www.w3.org/Graphics/SVG/1.1/DTD/svg11.dtd">
<svg version="1.1" id="Layer_1" xmlns="http://www.w3.org/2000/svg" xmlns:xlink="http://www.w3.org/1999/xlink" x="0px" y="0px"
	 width="53px" height="36px" viewBox="0 0 53 36" enable-background="new 0 0 53 36" xml:space="preserve">
<g>
	<g>
		<g>
			<path fill="#FFFFFF" d="M14.154,2.116c6.434,0,11.673,5.236,11.673,11.674c0,6.733-6.286,16.013-11.524,20.653h-7.78
				c1.945-2.993,3.739-6.287,4.786-9.58c-5.985-1.047-8.826-6.135-8.826-11.073C2.482,7.352,7.716,2.116,14.154,2.116z"/>
		</g>
	</g>
	<g>
		<g>
			<path fill="#FFFFFF" d="M39.2,2.116c6.433,0,11.672,5.236,11.672,11.674c0,6.733-6.286,16.013-11.524,20.653h-7.781
				c1.947-2.993,3.74-6.287,4.787-9.58c-5.985-1.047-8.826-6.135-8.826-11.073C27.525,7.352,32.762,2.116,39.2,2.116z"/>
		</g>
	</g>
</g>
</svg>
