<svg xmlns="http://www.w3.org/2000/svg" width="155.306" height="157.344" viewBox="0 0 155.306 157.344">
  <g id="mg-orange" transform="translate(-1515 -2411)">
    <g id="Groupe_16" data-name="Groupe 16" transform="translate(1515 2411)">
      <path id="Tracé_2554" data-name="Tracé 2554" d="M1223.307,384.821h-7.35v-8.2c0-14.558-10.388-27.587-24.821-29.5a28.75,28.75,0,0,0-32.533,28.422v34.453a32.182,32.182,0,0,0,32.182,32.182h33.6a28.751,28.751,0,0,0,28.422-32.534C1250.895,395.211,1237.866,384.821,1223.307,384.821Z" transform="translate(-1097.755 -346.863)" fill="#fde6cb" style="mix-blend-mode: multiply;isolation: isolate"/>
      <path id="Tracé_2555" data-name="Tracé 2555" d="M1132.726,384.821h7.35v-8.2c0-14.558,10.388-27.587,24.821-29.5a28.75,28.75,0,0,1,32.534,28.422v34.453a32.182,32.182,0,0,1-32.182,32.182h-33.6a28.751,28.751,0,0,1-28.422-32.534C1105.139,395.211,1118.168,384.821,1132.726,384.821Z" transform="translate(-1102.973 -346.863)" fill="#fde6cb" style="mix-blend-mode: multiply;isolation: isolate"/>
      <path id="Tracé_2556" data-name="Tracé 2556" d="M1223.307,460.931h-7.35v8.2c0,14.558-10.388,27.587-24.821,29.5a28.749,28.749,0,0,1-32.533-28.422V435.759a32.182,32.182,0,0,1,32.182-32.182h33.6a28.751,28.751,0,0,1,28.422,32.534C1250.895,450.542,1237.866,460.931,1223.307,460.931Z" transform="translate(-1097.755 -341.545)" fill="#fde6cb" style="mix-blend-mode: multiply;isolation: isolate"/>
      <path id="Tracé_2557" data-name="Tracé 2557" d="M1132.726,460.931h7.35v8.2c0,14.558,10.388,27.587,24.821,29.5a28.75,28.75,0,0,0,32.534-28.422V435.759a32.182,32.182,0,0,0-32.182-32.182h-33.6a28.751,28.751,0,0,0-28.422,32.534C1105.139,450.542,1118.168,460.931,1132.726,460.931Z" transform="translate(-1102.973 -341.545)" fill="#fde6cb" style="mix-blend-mode: multiply;isolation: isolate"/>
    </g>
  </g>
</svg>
