<svg xmlns="http://www.w3.org/2000/svg" width="95.814" height="97.072" viewBox="0 0 95.814 97.072">
  <g id="croix-1" transform="translate(-1515 -2411)">
    <g id="Groupe_16" data-name="Groupe 16" transform="translate(1515 2411)">
      <path id="Tracé_2554" data-name="Tracé 2554" d="M1198.521,370.281h-4.535V365.22c0-8.982-6.409-17.02-15.313-18.2a17.737,17.737,0,0,0-20.071,17.535v21.256a19.854,19.854,0,0,0,19.854,19.855h20.729a17.737,17.737,0,0,0,17.535-20.071C1215.541,376.691,1207.5,370.281,1198.521,370.281Z" transform="translate(-1121.063 -346.863)" fill="#aaccd9" style="mix-blend-mode: multiply;isolation: isolate"/>
      <path id="Tracé_2555" data-name="Tracé 2555" d="M1121.329,370.281h4.535V365.22c0-8.982,6.409-17.02,15.313-18.2a17.737,17.737,0,0,1,20.071,17.535v21.256a19.855,19.855,0,0,1-19.855,19.855h-20.729a17.738,17.738,0,0,1-17.535-20.071C1104.309,376.691,1112.347,370.281,1121.329,370.281Z" transform="translate(-1102.973 -346.863)" fill="#aaccd9" style="mix-blend-mode: multiply;isolation: isolate"/>
      <path id="Tracé_2556" data-name="Tracé 2556" d="M1198.521,438.961h-4.535v5.061c0,8.982-6.409,17.02-15.313,18.2a17.737,17.737,0,0,1-20.071-17.535V423.431a19.854,19.854,0,0,1,19.854-19.855h20.729a17.737,17.737,0,0,1,17.535,20.071C1215.541,432.551,1207.5,438.961,1198.521,438.961Z" transform="translate(-1121.063 -365.306)" fill="#aaccd9" style="mix-blend-mode: multiply;isolation: isolate"/>
      <path id="Tracé_2557" data-name="Tracé 2557" d="M1121.329,438.961h4.535v5.061c0,8.982,6.409,17.02,15.313,18.2a17.737,17.737,0,0,0,20.071-17.535V423.431a19.855,19.855,0,0,0-19.855-19.855h-20.729a17.738,17.738,0,0,0-17.535,20.071C1104.309,432.551,1112.347,438.961,1121.329,438.961Z" transform="translate(-1102.973 -365.306)" fill="#aaccd9" style="mix-blend-mode: multiply;isolation: isolate"/>
    </g>
  </g>
</svg>
