<svg xmlns="http://www.w3.org/2000/svg" width="153.875" height="155.894" viewBox="0 0 153.875 155.894">
  <g id="mg-symbole-orange" transform="translate(-1515 -2411)">
    <g id="Groupe_16" data-name="Groupe 16" transform="translate(1515 2411)">
      <path id="Tracé_2554" data-name="Tracé 2554" d="M1222.711,384.471h-7.283v-8.128c0-14.424-10.293-27.333-24.593-29.227a28.485,28.485,0,0,0-32.234,28.16v34.136a31.886,31.886,0,0,0,31.886,31.886h33.289a28.486,28.486,0,0,0,28.16-32.234C1250.044,394.765,1237.135,384.471,1222.711,384.471Z" transform="translate(-1098.316 -346.863)" fill="#fde6cb" style="mix-blend-mode: multiply;isolation: isolate"/>
      <path id="Tracé_2555" data-name="Tracé 2555" d="M1132.452,384.471h7.282v-8.128c0-14.424,10.293-27.333,24.593-29.227a28.485,28.485,0,0,1,32.234,28.16v34.136a31.886,31.886,0,0,1-31.886,31.886h-33.289a28.486,28.486,0,0,1-28.16-32.234C1105.119,394.765,1118.028,384.471,1132.452,384.471Z" transform="translate(-1102.972 -346.863)" fill="#fde6cb" style="mix-blend-mode: multiply;isolation: isolate"/>
      <path id="Tracé_2556" data-name="Tracé 2556" d="M1222.711,460.4h-7.283v8.128c0,14.424-10.293,27.333-24.593,29.227A28.485,28.485,0,0,1,1158.6,469.6V435.462a31.886,31.886,0,0,1,31.886-31.886h33.289a28.486,28.486,0,0,1,28.16,32.234C1250.044,450.109,1237.135,460.4,1222.711,460.4Z" transform="translate(-1098.316 -342.116)" fill="#fde6cb" style="mix-blend-mode: multiply;isolation: isolate"/>
      <path id="Tracé_2557" data-name="Tracé 2557" d="M1132.452,460.4h7.282v8.128c0,14.424,10.293,27.333,24.593,29.227a28.485,28.485,0,0,0,32.234-28.16V435.462a31.886,31.886,0,0,0-31.886-31.886h-33.289a28.486,28.486,0,0,0-28.16,32.234C1105.119,450.109,1118.028,460.4,1132.452,460.4Z" transform="translate(-1102.972 -342.116)" fill="#fde6cb" style="mix-blend-mode: multiply;isolation: isolate"/>
    </g>
  </g>
</svg>
